<svg width="21" height="18" viewBox="0 0 21 18" fill="none" xmlns="http://www.w3.org/2000/svg">
<g clip-path="url(#clip0_1225_33887)">
<path d="M4.10759 1.38927H1.7489C1.08957 1.38927 0.532715 1.90793 0.532715 2.56517V5.62065V16.1065C0.532715 16.7637 1.08957 17.2824 1.7489 17.2824H19.1885C19.8478 17.2824 20.4047 16.7637 20.4047 16.1065V2.56517C20.4047 1.90793 19.8478 1.38927 19.1885 1.38927H16.8057V0.829102V0.579102H16.5557H15.9035H15.6535V0.829102V1.38927H5.25977V0.829102V0.579102H5.00977H4.35759H4.10759V0.829102V1.38927ZM16.8298 3.49107V2.51425H19.1885C19.2042 2.51425 19.2219 2.52095 19.2359 2.53445C19.2501 2.54798 19.2525 2.56014 19.2525 2.56517V5.30121H1.68489V2.56517C1.68489 2.56014 1.68734 2.54798 1.70146 2.53445C1.71554 2.52095 1.73319 2.51425 1.7489 2.51425H4.10759V3.49107V3.74107H4.35759H5.00977H5.25977V3.49107V2.51425H15.6776V3.49107V3.74107H15.9276H16.5798H16.8298V3.49107ZM4.86484 8.12521H4.61484V8.37521V8.97705V9.22705H4.86484H6.14503H6.39503V8.97705V8.37521V8.12521H6.14503H4.86484ZM4.86484 10.602H4.61484V10.852V11.4538V11.7038H4.86484H6.14503H6.39503V11.4538V10.852V10.602H6.14503H4.86484ZM4.86484 13.0556H4.61484V13.3056V13.9075V14.1575H4.86484H6.14503H6.39503V13.9075V13.3056V13.0556H6.14503H4.86484ZM8.0774 8.12521H7.8274V8.37521V8.97705V9.22705H8.0774H9.35759H9.60759V8.97705V8.37521V8.12521H9.35759H8.0774ZM8.0774 10.602H7.8274V10.852V11.4538V11.7038H8.0774H9.35759H9.60759V11.4538V10.852V10.602H9.35759H8.0774ZM8.0774 13.0556H7.8274V13.3056V13.9075V14.1575H8.0774H9.35759H9.60759V13.9075V13.3056V13.0556H9.35759H8.0774ZM11.29 8.12521H11.04V8.37521V8.97705V9.22705H11.29H12.5702H12.8202V8.97705V8.37521V8.12521H12.5702H11.29ZM11.29 10.602H11.04V10.852V11.4538V11.7038H11.29H12.5702H12.8202V11.4538V10.852V10.602H12.5702H11.29ZM11.29 13.0556H11.04V13.3056V13.9075V14.1575H11.29H12.5702H12.8202V13.9075V13.3056V13.0556H12.5702H11.29ZM14.5025 8.12521H14.2525V8.37521V8.97705V9.22705H14.5025H15.7827H16.0327V8.97705V8.37521V8.12521H15.7827H14.5025ZM14.5025 10.602H14.2525V10.852V11.4538V11.7038H14.5025H15.7827H16.0327V11.4538V10.852V10.602H15.7827H14.5025ZM14.5025 13.0556H14.2525V13.3056V13.9075V14.1575H14.5025H15.7827H16.0327V13.9075V13.3056V13.0556H15.7827H14.5025ZM19.1885 16.1574H1.7489C1.73319 16.1574 1.71555 16.1507 1.70146 16.1372C1.68734 16.1237 1.68489 16.1115 1.68489 16.1065V6.40305H19.2525V16.0834C19.2525 16.1325 19.2175 16.1574 19.1885 16.1574Z" fill="#F7F7F7" stroke="#F7F7F7" stroke-width="0.5"/>
</g>
<defs>
<clipPath id="clip0_1225_33887">
<rect width="21" height="18" fill="white"/>
</clipPath>
</defs>
</svg>
