<svg width="18" height="21" viewBox="0 0 18 21" fill="none" xmlns="http://www.w3.org/2000/svg">
<path d="M14.7889 13.3198L12.7528 13.0873C12.5134 13.0592 12.2707 13.0857 12.043 13.1649C11.8153 13.244 11.6085 13.3737 11.4381 13.5443L9.96317 15.0192C7.68755 13.8619 5.83789 12.0122 4.68054 9.73659L6.16353 8.25359C6.50822 7.9089 6.67656 7.42793 6.62045 6.93894L6.38798 4.91886C6.34253 4.52782 6.15486 4.16714 5.86071 3.9055C5.56655 3.64386 5.18645 3.49953 4.79277 3.5H3.40598C2.50015 3.5 1.74664 4.25352 1.80275 5.15935C2.2276 12.0052 7.70262 17.4722 14.5404 17.8971C15.4462 17.9532 16.1997 17.1996 16.1997 16.2938V14.907C16.2077 14.0974 15.5985 13.416 14.7889 13.3198Z" fill="url(#paint0_linear_100_93144)"/>
<defs>
<linearGradient id="paint0_linear_100_93144" x1="8.9998" y1="3.5" x2="8.9998" y2="17.9" gradientUnits="userSpaceOnUse">
<stop stop-color="#2C4646"/>
<stop offset="1" stop-color="#678E96"/>
</linearGradient>
</defs>
</svg>
