<svg width="18" height="20" viewBox="0 0 18 20" fill="none" xmlns="http://www.w3.org/2000/svg">
<path d="M3.27975 10.6181C3.40085 10.8706 3.53978 11.114 3.69545 11.3463L8.59973 18.7868C8.62242 18.821 8.65301 18.8491 8.68884 18.8687C8.72468 18.8882 8.76468 18.8985 8.80537 18.8988C8.84643 18.8989 8.88687 18.8887 8.92313 18.8692C8.95938 18.8496 8.99032 18.8213 9.01321 18.7868L13.8777 11.3933C14.0581 11.1313 14.2185 10.8556 14.3575 10.5688C14.7856 9.62396 14.9719 8.58503 14.8991 7.54796C14.8263 6.5109 14.4968 5.50913 13.941 4.63517C13.3853 3.7612 12.6211 3.04322 11.7192 2.5475C10.8173 2.05178 9.80659 1.79432 8.78052 1.79889C7.75445 1.80345 6.74606 2.0699 5.84845 2.57362C4.95085 3.07734 4.19297 3.80211 3.64479 4.68098C3.09661 5.55986 2.77581 6.56452 2.71201 7.60219C2.64821 8.63986 2.84347 9.6771 3.27975 10.6181ZM8.80758 4.55545C9.47318 4.55545 10.1238 4.75545 10.6773 5.13014C11.2307 5.50483 11.662 6.03739 11.9167 6.66048C12.1715 7.28357 12.2381 7.9692 12.1083 8.63067C11.9784 9.29214 11.6579 9.89974 11.1872 10.3766C10.7166 10.8535 10.1169 11.1783 9.46412 11.3099C8.81131 11.4414 8.13465 11.3739 7.51972 11.1158C6.90478 10.8577 6.37919 10.4207 6.0094 9.8599C5.63961 9.29913 5.44224 8.63985 5.44224 7.96542C5.44341 7.06141 5.79835 6.19476 6.42922 5.55552C7.06009 4.91628 7.91539 4.55664 8.80758 4.55545Z" fill="url(#paint0_linear_100_93115)"/>
<defs>
<linearGradient id="paint0_linear_100_93115" x1="8.80734" y1="1.79883" x2="8.80734" y2="18.8988" gradientUnits="userSpaceOnUse">
<stop stop-color="#2C4646"/>
<stop offset="1" stop-color="#678E96"/>
</linearGradient>
</defs>
</svg>
