<svg width="40" height="41" viewBox="0 0 40 41" fill="none" xmlns="http://www.w3.org/2000/svg">
<path d="M0 0.0888672L40 40.0889H4.27135e-05L0 0.0888672Z" fill="#F7F7F7"/>
<mask id="path-2-inside-1_204_33871" fill="white">
<path d="M8.45546 6.56994C5.6924 8.92954 3.7187 12.0791 2.80013 15.5946C1.88156 19.1101 2.06224 22.8226 3.31783 26.2322C4.57342 29.6419 6.84362 32.5849 9.82275 34.6651C12.8019 36.7452 16.3469 37.8626 19.9803 37.8667C23.6138 37.8708 27.1613 36.7615 30.1451 34.688C33.129 32.6146 35.4058 29.6767 36.6691 26.2699C37.9324 22.8631 38.1215 19.151 37.2109 15.6335C36.3002 12.116 34.3337 8.96192 31.5759 6.59607L30.5175 7.82983C33.0231 9.97935 34.8098 12.845 35.6372 16.0409C36.4645 19.2368 36.2927 22.6094 35.145 25.7047C33.9972 28.8 31.9285 31.4693 29.2175 33.3531C26.5065 35.2369 23.2834 36.2449 19.9822 36.2411C16.6809 36.2374 13.4601 35.2222 10.7534 33.3323C8.04665 31.4423 5.98403 28.7684 4.84325 25.6705C3.70247 22.5726 3.53832 19.1996 4.37289 16.0055C5.20747 12.8115 7.00069 9.94993 9.51111 7.80609L8.45546 6.56994Z"/>
</mask>
<path d="M8.45546 6.56994C5.6924 8.92954 3.7187 12.0791 2.80013 15.5946C1.88156 19.1101 2.06224 22.8226 3.31783 26.2322C4.57342 29.6419 6.84362 32.5849 9.82275 34.6651C12.8019 36.7452 16.3469 37.8626 19.9803 37.8667C23.6138 37.8708 27.1613 36.7615 30.1451 34.688C33.129 32.6146 35.4058 29.6767 36.6691 26.2699C37.9324 22.8631 38.1215 19.151 37.2109 15.6335C36.3002 12.116 34.3337 8.96192 31.5759 6.59607L30.5175 7.82983C33.0231 9.97935 34.8098 12.845 35.6372 16.0409C36.4645 19.2368 36.2927 22.6094 35.145 25.7047C33.9972 28.8 31.9285 31.4693 29.2175 33.3531C26.5065 35.2369 23.2834 36.2449 19.9822 36.2411C16.6809 36.2374 13.4601 35.2222 10.7534 33.3323C8.04665 31.4423 5.98403 28.7684 4.84325 25.6705C3.70247 22.5726 3.53832 19.1996 4.37289 16.0055C5.20747 12.8115 7.00069 9.94993 9.51111 7.80609L8.45546 6.56994Z" stroke="#BFA380" stroke-width="3.60384" mask="url(#path-2-inside-1_204_33871)"/>
<path d="M24.8172 15.1123C24.8718 15.4679 24.9294 15.8423 24.9903 16.2381L25.0035 16.3245L25.0035 16.3245L25.6834 20.7413L24.8172 15.1123ZM24.8172 15.1123L24.818 15.1122L24.5568 13.416M24.8172 15.1123L24.5568 13.416M24.5568 13.416C24.0808 10.3073 23.8508 8.74884 23.4356 5.74924L24.519 1.41563L24.519 1.41548C24.5686 1.21595 24.5244 1.00424 24.3971 0.840809L24.3969 0.840515C24.2698 0.678556 24.0755 0.583351 23.869 0.583351H15.8026C15.5961 0.583351 15.4019 0.678556 15.2747 0.840514L15.2745 0.84081C15.1472 1.00424 15.1031 1.21595 15.1526 1.41548L15.1526 1.41561L16.2716 5.89487L13.9882 20.7413L13.9882 20.7414L14.081 20.7557C14.0511 20.9493 14.1213 21.144 14.2677 21.2742L19.4532 25.8836C19.671 26.0772 20.0006 26.0772 20.2184 25.8836L25.4039 21.2742L24.5568 13.416ZM22.1418 6.53286L24.3031 20.5846L19.8358 24.5561L15.3685 20.5846L17.5298 6.53286H22.1418ZM23.0112 1.92348L22.1939 5.19273H17.4777L16.6604 1.92348H23.0112Z" fill="#446467" stroke="#446467" stroke-width="0.187789"/>
</svg>
