<svg width="20" height="21" viewBox="0 0 20 21" fill="none" xmlns="http://www.w3.org/2000/svg">
<g clip-path="url(#clip0_100_93189)">
<path fill-rule="evenodd" clip-rule="evenodd" d="M3.70281 14.1596L5.3195 12.3604L7.69238 14.4986L6.07569 16.2717L0.104378 20.2873L3.70281 14.1596Z" fill="#446467" stroke="#446467" stroke-width="0.281279"/>
<path fill-rule="evenodd" clip-rule="evenodd" d="M14.9415 7.79611L19.3222 2.94604C19.4265 2.81566 19.6351 2.81566 19.7915 2.91997C19.9219 3.02427 19.8959 3.23287 19.8176 3.38933L15.4108 8.21332C15.2805 8.36977 15.0979 8.36977 14.9676 8.23939C14.8372 8.13509 14.8111 7.92649 14.9415 7.79611Z" fill="#446467" stroke="#446467" stroke-width="0.281279"/>
<path fill-rule="evenodd" clip-rule="evenodd" d="M12.9598 3.6505L15.8281 0.443195C16.1932 0.0259854 16.8451 -9.0234e-05 17.2623 0.391044L18.4357 1.43407C18.8529 1.79913 18.879 2.45102 18.4879 2.86823L15.6195 6.07553L12.9598 3.6505Z" fill="#446467" stroke="#446467" stroke-width="0.281279"/>
<path fill-rule="evenodd" clip-rule="evenodd" d="M5.76288 11.8904L12.6208 4.27637L14.9937 6.38849L8.10969 14.0026L5.76288 11.8904Z" fill="#446467" stroke="#446467" stroke-width="0.281279"/>
<path fill-rule="evenodd" clip-rule="evenodd" d="M3.70281 14.1596L5.3195 12.3604L7.69238 14.4986L6.07569 16.2717L0.104378 20.2873L3.70281 14.1596Z" fill="#446467" stroke="#446467" stroke-width="0.281279"/>
<path fill-rule="evenodd" clip-rule="evenodd" d="M14.9415 7.79611L19.3222 2.94604C19.4265 2.81566 19.6351 2.81566 19.7915 2.91997C19.9219 3.02427 19.8959 3.23287 19.8176 3.38933L15.4108 8.21332C15.2805 8.36977 15.0979 8.36977 14.9676 8.23939C14.8372 8.13509 14.8111 7.92649 14.9415 7.79611Z" fill="#446467" stroke="#446467" stroke-width="0.281279"/>
<path fill-rule="evenodd" clip-rule="evenodd" d="M12.9598 3.6505L15.8281 0.443195C16.1932 0.0259854 16.8451 -9.0234e-05 17.2623 0.391044L18.4357 1.43407C18.8529 1.79913 18.879 2.45102 18.4879 2.86823L15.6195 6.07553L12.9598 3.6505Z" fill="#446467" stroke="#446467" stroke-width="0.281279"/>
<path fill-rule="evenodd" clip-rule="evenodd" d="M5.76288 11.8904L12.6208 4.27637L14.9937 6.38849L8.10969 14.0026L5.76288 11.8904Z" fill="#446467" stroke="#446467" stroke-width="0.281279"/>
</g>
<defs>
<clipPath id="clip0_100_93189">
<rect width="20" height="20.3911" fill="white" transform="matrix(-1 0 0 1 20 0)"/>
</clipPath>
</defs>
</svg>
