<svg width="60" height="53" viewBox="0 0 60 53" fill="none" xmlns="http://www.w3.org/2000/svg">
<path d="M29.1642 5.02262C29.1642 4.70564 28.8732 4.38867 28.5338 4.38867C28.1943 4.38867 27.9033 4.68126 27.9033 5.02262C27.9033 5.36397 28.1943 5.65656 28.5338 5.65656C28.849 5.65656 29.1884 5.33959 29.1642 5.02262Z" fill="url(#paint0_linear_1831_23427)"/>
<path d="M27.2002 4.99845C27.2002 4.63271 26.9335 4.3645 26.5698 4.3645C26.2545 4.3645 25.9636 4.65709 25.9636 4.99845C25.9393 5.36418 26.2303 5.65677 26.5698 5.65677C26.885 5.65677 27.176 5.38857 27.2002 4.99845Z" fill="url(#paint1_linear_1831_23427)"/>
<path d="M24.557 5.65656C24.8964 5.65656 25.2116 5.33959 25.1874 5.02262C25.1874 4.70564 24.8964 4.38867 24.557 4.38867C24.2175 4.38867 23.9265 4.68126 23.9265 5.02262C23.9265 5.36397 24.2175 5.65656 24.557 5.65656Z" fill="url(#paint2_linear_1831_23427)"/>
<path d="M39.2025 38.4756C39.3965 38.5732 39.5905 38.6463 39.8087 38.6463C40.027 38.6463 40.2452 38.5976 40.4392 38.4756L52.9752 30.722H55.5454C57.7762 30.5757 59.522 28.6983 59.522 26.4551V4.31577C59.522 1.95066 57.6065 0.0488281 55.2787 0.0488281H23.5143C21.1623 0.0488281 19.271 1.95066 19.271 4.31577V9.65553C19.271 10.3139 19.8044 10.8503 20.4591 10.8503C21.1138 10.8503 21.6473 10.3139 21.6473 9.65553V4.31577C21.6473 3.2917 22.4717 2.4627 23.4901 2.4627H55.2545C56.2729 2.4627 57.0973 3.2917 57.0973 4.31577V26.4307C57.0973 27.406 56.3214 28.235 55.4242 28.2838H52.5872C52.369 28.2838 52.1508 28.3569 51.9568 28.4544L40.9969 35.2328L41.0939 29.5029C41.0939 29.1859 40.9726 28.8689 40.7544 28.6251C40.5362 28.4057 40.2209 28.2594 39.9057 28.2594H29.3823C28.7276 28.2594 28.1941 28.7958 28.1941 29.4541C28.1941 30.1125 28.7276 30.6489 29.3823 30.6489H38.6933L38.5721 37.354C38.5721 37.8661 38.8146 38.2562 39.2025 38.4756Z" fill="url(#paint3_linear_1831_23427)"/>
<path d="M23.4417 7.90025C23.4417 8.16846 23.6599 8.3879 23.9266 8.3879H54.5756C54.8423 8.3879 55.0605 8.16846 55.0605 7.90025C55.0605 7.63204 54.8423 7.4126 54.5756 7.4126H23.9266C23.6599 7.4126 23.4417 7.63204 23.4417 7.90025Z" fill="url(#paint4_linear_1831_23427)"/>
<path d="M18.0831 13.6787C16.7252 13.7031 15.4643 13.9225 14.3004 14.337C11.3907 15.4099 9.64489 17.6774 9.32967 20.7009C9.30542 21.0178 9.30542 21.3104 9.30542 21.603V21.8468C9.32967 24.212 9.91161 26.5771 11.0028 28.9178C11.5604 30.0881 12.3849 31.161 13.5245 32.185C14.7611 33.3066 16.3372 33.9162 18.0346 33.9162H18.0831H18.2528C19.8774 33.9162 21.4535 33.3066 22.6659 32.185C23.7812 31.161 24.6057 30.0881 25.1876 28.9178C26.303 26.5771 26.8849 24.212 26.8849 21.8468V21.603C26.8849 21.2861 26.8849 20.9935 26.8607 20.6765C26.5697 17.6774 24.7996 15.4099 21.8899 14.3127C20.7503 13.9225 19.4652 13.6787 18.0831 13.6787ZM24.5087 20.9447C24.5329 21.1398 24.5329 21.3592 24.5087 21.5786V21.8468C24.4844 23.8462 23.9995 25.8943 23.0296 27.8937C22.5931 28.7959 21.9627 29.6249 21.0655 30.4295C20.2896 31.1366 19.2712 31.5267 18.277 31.5511H17.8891C16.8464 31.5267 15.9008 31.1366 15.1491 30.4539C14.2519 29.6492 13.6215 28.8202 13.185 27.9181C12.2151 25.9187 11.7302 23.8706 11.7059 21.8712V21.603C11.7059 21.408 11.7059 21.1885 11.7059 20.9935C11.9242 18.8966 13.0638 17.4336 15.1248 16.6534C16.022 16.312 17.0404 16.1413 18.0831 16.1413C19.1742 16.1413 20.1684 16.3364 21.0655 16.6534C23.1508 17.3605 24.2904 18.8234 24.5087 20.9447Z" fill="url(#paint5_linear_1831_23427)"/>
<path d="M34.4501 52.6177C35.1048 52.6177 35.6382 52.0813 35.6382 51.423V43.5474C35.6625 42.9866 35.4927 40.3045 31.6616 39.0123C31.4191 38.9147 25.527 36.9154 24.0236 36.4521L23.3447 36.2327L18.1072 41.4993L12.8697 36.2327L12.1908 36.4521C10.7117 36.9154 4.81951 38.9391 4.55278 39.0123C0.721657 40.3045 0.576172 43.011 0.576172 43.5474V51.423C0.576172 52.0813 1.10962 52.6177 1.76431 52.6177C2.41899 52.6177 2.95244 52.0813 2.95244 51.423V43.4743C2.95244 43.328 3.00093 42.0845 5.30446 41.3042C5.35295 41.2798 10.0812 39.6706 12.1908 38.9879L18.083 44.9128L23.9751 38.9879C26.0847 39.6706 30.813 41.2798 30.8614 41.3042C33.165 42.0845 33.2135 43.328 33.2135 43.4499V51.423C33.2377 52.0813 33.7712 52.6177 34.4501 52.6177Z" fill="url(#paint6_linear_1831_23427)"/>
<defs>
<linearGradient id="paint0_linear_1831_23427" x1="27.4894" y1="3.69338" x2="28.9916" y2="5.91605" gradientUnits="userSpaceOnUse">
<stop stop-color="#AD8557"/>
<stop offset="1" stop-color="#D4C8B6"/>
</linearGradient>
<linearGradient id="paint1_linear_1831_23427" x1="25.5561" y1="3.65584" x2="27.1083" y2="5.86608" gradientUnits="userSpaceOnUse">
<stop stop-color="#AD8557"/>
<stop offset="1" stop-color="#D4C8B6"/>
</linearGradient>
<linearGradient id="paint2_linear_1831_23427" x1="23.5126" y1="3.69338" x2="25.0148" y2="5.91614" gradientUnits="userSpaceOnUse">
<stop stop-color="#AD8557"/>
<stop offset="1" stop-color="#D4C8B6"/>
</linearGradient>
<linearGradient id="paint3_linear_1831_23427" x1="39.3965" y1="0.0488281" x2="39.3965" y2="38.6463" gradientUnits="userSpaceOnUse">
<stop stop-color="#2C4646"/>
<stop offset="1" stop-color="#678E96"/>
</linearGradient>
<linearGradient id="paint4_linear_1831_23427" x1="39.2511" y1="7.4126" x2="39.2511" y2="8.3879" gradientUnits="userSpaceOnUse">
<stop stop-color="#2C4646"/>
<stop offset="1" stop-color="#678E96"/>
</linearGradient>
<linearGradient id="paint5_linear_1831_23427" x1="3.54009" y1="2.58074" x2="28.5603" y2="34.8855" gradientUnits="userSpaceOnUse">
<stop stop-color="#AD8557"/>
<stop offset="1" stop-color="#D4C8B6"/>
</linearGradient>
<linearGradient id="paint6_linear_1831_23427" x1="-10.9233" y1="27.2473" x2="1.04879" y2="65.3281" gradientUnits="userSpaceOnUse">
<stop stop-color="#AD8557"/>
<stop offset="1" stop-color="#D4C8B6"/>
</linearGradient>
</defs>
</svg>
