<svg width="135" height="112" viewBox="0 0 135 112" fill="none" xmlns="http://www.w3.org/2000/svg">
<g opacity="0.6" clip-path="url(#clip0_1216_27801)">
<g clip-path="url(#clip1_1216_27801)">
<path d="M25.588 54.493C22.0136 52.3978 18.2342 52.0287 15.6055 53.5204C13.4816 54.6938 11.9062 56.5316 10.4114 58.3062C10.0334 58.7858 9.61395 59.2458 9.21402 59.6644C6.63886 62.5487 4.66844 65.0099 2.98575 67.506C2.86626 67.652 2.7687 67.8591 2.64921 68.0052C-0.723546 73.5508 0.931368 81.1192 6.37095 84.9572C6.87077 85.2948 7.41205 85.652 7.99235 85.9264C10.2306 86.9847 12.903 87.3368 15.556 86.8694C18.9844 86.2622 22.013 84.3519 23.8347 81.6684C25.4978 79.2138 27.1123 76.4323 28.7926 72.973C29.0463 72.4346 29.3414 71.9158 29.656 71.3555C30.7339 69.2825 31.8923 67.1463 32.2047 64.7619C32.6586 60.5708 29.2234 56.5664 25.588 54.493ZM30.354 64.4946C30.0953 66.5498 29.0564 68.54 27.9955 70.4692C27.6809 71.0294 27.4273 71.5678 27.1127 72.128C25.4299 75.4849 23.896 78.2032 22.2718 80.575C20.7281 82.8835 18.1433 84.4972 15.1636 85.0127C12.3473 85.5041 9.4652 84.9517 7.33911 83.44C2.69194 80.1792 1.26613 73.6307 4.14626 68.9156C4.22431 68.7499 4.3438 68.6039 4.46329 68.4578C6.10697 66.0446 8.01642 63.6051 10.5331 60.8451C10.9525 60.3851 11.3305 59.9055 11.7694 59.4041C13.1643 57.7341 14.6202 56.0424 16.4612 55.0391C18.3023 54.0359 20.9088 54.2049 23.5616 55.4592C23.9347 55.6356 24.3077 55.812 24.6613 56.0298C28.36 58.1838 30.6761 61.6591 30.354 64.4946Z" fill="url(#paint0_linear_1216_27801)" stroke="url(#paint1_linear_1216_27801)" stroke-width="1.34545"/>
<path d="M68.5384 71.4042C64.6695 72.8898 62.0454 75.6504 61.6094 78.6973C61.2316 81.1386 61.7202 83.5729 62.2081 85.9026C62.356 86.5116 62.4628 87.1408 62.5487 87.7279C63.252 91.6299 63.9921 94.7794 64.9374 97.7231C64.9797 97.912 65.0841 98.1229 65.1264 98.3118C67.4521 104.562 74.4855 108.127 80.8893 106.284C81.4658 106.105 82.0834 105.906 82.6593 105.623C84.8805 104.529 86.8083 102.636 88.0731 100.23C89.7051 97.1182 90.0553 93.4842 89.0468 90.3094C88.1225 87.4079 86.9083 84.3344 85.1964 80.7718C84.9251 80.2236 84.6949 79.6551 84.4438 79.0444C83.4617 76.8532 82.479 74.5573 80.7773 72.7728C77.7276 69.7116 72.4277 69.8563 68.5384 71.4042ZM79.4236 74.0688C80.8969 75.5986 81.8372 77.7055 82.7156 79.7905C82.9667 80.4012 83.238 80.9494 83.489 81.56C85.1181 85.0586 86.3316 88.0275 87.2143 90.8447C88.0963 93.5572 87.7842 96.648 86.3561 99.3442C85.0096 101.895 82.7933 103.826 80.2811 104.538C74.8245 106.124 68.7427 103.035 66.773 97.7108C66.6895 97.5421 66.6471 97.3532 66.6048 97.1643C65.7013 94.3049 64.9409 91.2178 64.3002 87.4423C64.1934 86.8131 64.0455 86.2041 63.9178 85.5327C63.4514 83.3498 63.0052 81.1044 63.3436 78.9972C63.682 76.89 65.4238 74.9309 68.0564 73.6346C68.4266 73.4523 68.7968 73.27 69.1879 73.1299C73.1802 71.5836 77.3695 71.9858 79.4236 74.0688Z" fill="url(#paint2_linear_1216_27801)" stroke="url(#paint3_linear_1216_27801)" stroke-width="1.34545"/>
<path d="M30.2723 52.8217L30.2724 52.8216L30.2686 52.8151C29.6833 51.8272 30.0157 50.5108 30.9625 49.9156C37.2479 46.2671 44.8034 45.1519 52.2282 46.8278C58.1801 48.1723 62.8953 51.5028 67.4873 54.7463L67.5541 54.7935L67.5545 54.7937L67.6325 54.8486C72.0587 57.9587 76.251 60.9044 81.4381 62.074L81.4387 62.0742C93.3359 64.7093 105.96 59.1838 112.12 48.6415C116.576 41.057 117.28 31.956 114.087 23.7452C110.893 15.5338 104.186 9.27025 95.6462 6.5721C83.4466 2.71094 70.1287 7.3926 63.1715 17.9714C59.5622 23.429 57.9648 29.6853 58.4892 36.068L58.4891 36.068L58.4896 36.0726C58.6156 37.2169 57.7604 38.2351 56.5598 38.3353L56.5567 38.3356C55.4065 38.4533 54.3779 37.5924 54.2683 36.3971C53.6808 29.0325 55.5241 21.8494 59.6333 15.6344L59.6336 15.6339C67.6291 3.45781 82.9589 -1.93877 96.9729 2.54607L96.9734 2.54623C106.764 5.64539 114.48 12.813 118.15 22.2468L118.151 22.2473C121.84 31.6392 120.994 42.0472 115.894 50.8026C108.789 62.9418 94.2917 69.2927 80.629 66.2481L80.6289 66.2481C74.5932 64.9097 69.8887 61.5966 65.2697 58.3437L65.158 58.2651C65.1578 58.265 65.1577 58.2649 65.1576 58.2648C60.7219 55.0924 56.5534 52.1388 51.378 50.9821C45.0052 49.5157 38.5247 50.4742 33.2104 53.5871C32.5561 53.949 31.8227 53.9792 31.2 53.6848C30.807 53.499 30.4727 53.1976 30.2723 52.8217Z" fill="url(#paint4_linear_1216_27801)" stroke="#F7F7F7" stroke-width="0.336364"/>
</g>
</g>
<defs>
<linearGradient id="paint0_linear_1216_27801" x1="23.7525" y1="53.5569" x2="8.36414" y2="86.1022" gradientUnits="userSpaceOnUse">
<stop stop-color="#2C4646"/>
<stop offset="1" stop-color="#678E96"/>
</linearGradient>
<linearGradient id="paint1_linear_1216_27801" x1="23.7525" y1="53.5569" x2="8.36414" y2="86.1022" gradientUnits="userSpaceOnUse">
<stop stop-color="#2C4646"/>
<stop offset="1" stop-color="#678E96"/>
</linearGradient>
<linearGradient id="paint2_linear_1216_27801" x1="66.6628" y1="72.2572" x2="83.0077" y2="105.451" gradientUnits="userSpaceOnUse">
<stop stop-color="#2C4646"/>
<stop offset="1" stop-color="#678E96"/>
</linearGradient>
<linearGradient id="paint3_linear_1216_27801" x1="66.6628" y1="72.2572" x2="83.0077" y2="105.451" gradientUnits="userSpaceOnUse">
<stop stop-color="#2C4646"/>
<stop offset="1" stop-color="#678E96"/>
</linearGradient>
<linearGradient id="paint4_linear_1216_27801" x1="55.4021" y1="-63.1417" x2="76.7324" y2="96.3628" gradientUnits="userSpaceOnUse">
<stop stop-color="#AD8557"/>
<stop offset="1" stop-color="#D4C8B6"/>
</linearGradient>
<clipPath id="clip0_1216_27801">
<rect width="135" height="112" fill="white"/>
</clipPath>
<clipPath id="clip1_1216_27801">
<rect width="96.8714" height="113.901" fill="white" transform="matrix(0.904092 0.427338 -0.426289 0.904587 45.207 -22.4648)"/>
</clipPath>
</defs>
</svg>
