<svg width="95" height="79" viewBox="0 0 95 79" fill="none" xmlns="http://www.w3.org/2000/svg">
<path d="M9.99362 78.2783C11.7416 78.4303 44.3456 78.5822 56.5816 78.5822H71.3256C72.7316 78.5822 74.0996 78.5822 75.4676 78.6202C76.8356 78.6202 78.1276 78.6581 79.4576 78.6581C80.8256 78.6581 82.1556 78.6581 83.4856 78.5822C89.7936 78.2404 94.5816 73.3029 94.5816 67.112C94.7336 46.9062 94.7336 32.1697 94.7336 11.812C94.7336 5.6591 89.6796 0.49372 83.4476 0.341797H11.5896C5.43362 0.341797 0.265625 5.54516 0.265625 11.6601V67.2259C0.265625 72.923 4.52162 77.7846 9.99362 78.2783ZM4.02763 11.6601C4.02763 7.55814 7.48562 4.06391 11.6276 4.06391H83.4096C87.5896 4.17786 91.0096 7.63411 91.0096 11.774C91.0096 32.1317 91.0096 46.8682 90.8576 67.074C90.8576 71.2519 87.6276 74.5562 83.3336 74.7841C80.8256 74.8601 78.2416 74.8601 75.5436 74.8221C74.1756 74.8221 72.7696 74.7841 71.3636 74.7841H56.6196C41.6856 74.7841 11.8936 74.6322 10.3736 74.5182C6.87762 74.1764 4.06562 70.9101 4.06562 67.2259V11.6601H4.02763Z" fill="url(#paint0_linear_1831_29304)"/>
<path d="M7.52367 21.1562H58.1397C60.2677 21.1562 60.6097 20.8143 60.6097 18.6874V14.5475C60.6097 13.8639 60.6477 13.8639 61.1417 13.8639H75.6197C76.0377 13.8639 76.1517 13.9398 76.1517 13.9398C76.1517 13.9398 76.1897 14.0917 76.1517 14.5475V19.2571C76.1517 19.523 76.1517 20.3586 76.7217 20.8523C76.9877 21.0802 77.3677 21.1941 77.7097 21.1941C77.8237 21.1941 77.9377 21.1941 78.0517 21.1562H85.5377C85.9557 21.1562 86.2977 20.8143 86.2977 20.3965C86.2977 19.9788 85.9557 19.6369 85.5377 19.6369H77.9377C77.8237 19.6749 77.7477 19.6369 77.7097 19.6749C77.7097 19.6369 77.6717 19.523 77.6717 19.2571V14.6235C77.7477 14.1297 77.7857 13.4461 77.3297 12.9143C76.8737 12.3826 76.1517 12.3066 75.6577 12.3066H61.1797C59.1277 12.3066 59.1277 13.9398 59.1277 14.4715V18.6114C59.1277 18.9913 59.1277 19.3711 59.0897 19.561C58.8997 19.5989 58.5197 19.5989 58.1397 19.5989H7.52367C7.10567 19.5989 6.76367 19.9408 6.76367 20.3586C6.76367 20.7764 7.10567 21.1562 7.52367 21.1562Z" fill="url(#paint1_linear_1831_29304)"/>
<defs>
<linearGradient id="paint0_linear_1831_29304" x1="-30.7158" y1="-42.6059" x2="54.3695" y2="109.944" gradientUnits="userSpaceOnUse">
<stop stop-color="#AD8557"/>
<stop offset="1" stop-color="#D4C8B6"/>
</linearGradient>
<linearGradient id="paint1_linear_1831_29304" x1="46.5307" y1="12.3066" x2="46.5307" y2="21.1941" gradientUnits="userSpaceOnUse">
<stop stop-color="#2C4646"/>
<stop offset="1" stop-color="#678E96"/>
</linearGradient>
</defs>
</svg>
