<svg width="47" height="59" viewBox="0 0 47 59" fill="none" xmlns="http://www.w3.org/2000/svg">
<path d="M0.157471 58.2543H19.1828H46.661V51.9041C46.661 51.1956 46.0852 50.6183 45.3786 50.6183C44.6721 50.6183 44.0963 51.1956 44.0963 51.9041V55.6565H22.8989H21.7998V17.765L44.0963 4.53964V46.9708C44.0963 47.6793 44.6721 48.2566 45.3786 48.2566C46.0852 48.2566 46.661 47.6793 46.661 46.9708V0L19.1828 16.2955V55.6565H2.74827V24.8762C2.74827 23.3542 3.97824 22.1209 5.46991 22.1209H15.7808C16.4873 22.1209 17.0631 21.5436 17.0631 20.8351C17.0631 20.1266 16.4873 19.5493 15.7808 19.5493H5.49608C2.56508 19.5493 0.18364 21.9372 0.18364 24.9024V58.2543H0.157471Z" fill="url(#paint0_linear_1831_23411)"/>
<path d="M17.2982 26.8714C17.5861 26.8714 17.8216 26.6352 17.8216 26.3466C17.8216 26.0579 17.5861 25.8218 17.2982 25.8218H6.83032V31.1749H17.2982C17.5861 31.1749 17.8216 30.9387 17.8216 30.6501C17.8216 30.3614 17.5861 30.1253 17.2982 30.1253H7.87711V26.8714H17.2982Z" fill="url(#paint1_linear_1831_23411)"/>
<path d="M17.2982 37.682C17.5861 37.682 17.8216 37.4458 17.8216 37.1571C17.8216 36.8685 17.5861 36.6323 17.2982 36.6323H6.83032V41.9854H17.2982C17.5861 41.9854 17.8216 41.7493 17.8216 41.4606C17.8216 41.172 17.5861 40.9358 17.2982 40.9358H7.87711V37.6557H17.2982V37.682Z" fill="url(#paint2_linear_1831_23411)"/>
<path d="M17.2982 48.4927C17.5861 48.4927 17.8216 48.2566 17.8216 47.9679C17.8216 47.6793 17.5861 47.4431 17.2982 47.4431H6.83032V52.7962H17.2982C17.5861 52.7962 17.8216 52.56 17.8216 52.2714C17.8216 51.9828 17.5861 51.7466 17.2982 51.7466H7.87711V48.4927H17.2982Z" fill="url(#paint3_linear_1831_23411)"/>
<defs>
<linearGradient id="paint0_linear_1831_23411" x1="-15.0937" y1="-31.9459" x2="58.2172" y2="55.0403" gradientUnits="userSpaceOnUse">
<stop stop-color="#AD8557"/>
<stop offset="1" stop-color="#D4C8B6"/>
</linearGradient>
<linearGradient id="paint1_linear_1831_23411" x1="12.326" y1="25.8218" x2="12.326" y2="31.1749" gradientUnits="userSpaceOnUse">
<stop stop-color="#2C4646"/>
<stop offset="1" stop-color="#678E96"/>
</linearGradient>
<linearGradient id="paint2_linear_1831_23411" x1="12.326" y1="36.6323" x2="12.326" y2="41.9854" gradientUnits="userSpaceOnUse">
<stop stop-color="#2C4646"/>
<stop offset="1" stop-color="#678E96"/>
</linearGradient>
<linearGradient id="paint3_linear_1831_23411" x1="12.326" y1="47.4431" x2="12.326" y2="52.7962" gradientUnits="userSpaceOnUse">
<stop stop-color="#2C4646"/>
<stop offset="1" stop-color="#678E96"/>
</linearGradient>
</defs>
</svg>
