<svg width="18" height="21" viewBox="0 0 18 21" fill="none" xmlns="http://www.w3.org/2000/svg">
<path d="M8.9998 17.6998C12.9706 17.6998 16.1998 14.4706 16.1998 10.4998C16.1998 6.52902 12.9706 3.2998 8.9998 3.2998C5.02899 3.2998 1.7998 6.52899 1.7998 10.4998C1.7998 14.4706 5.02899 17.6998 8.9998 17.6998ZM8.6398 6.061C8.6398 5.863 8.80181 5.701 8.9998 5.701C9.1978 5.701 9.3598 5.863 9.3598 6.061V10.1398H12.085C12.283 10.1398 12.445 10.3018 12.445 10.4998C12.445 10.6978 12.283 10.8598 12.085 10.8598H8.9998C8.80181 10.8598 8.6398 10.6978 8.6398 10.4998V6.061Z" fill="url(#paint0_linear_100_93131)"/>
<defs>
<linearGradient id="paint0_linear_100_93131" x1="8.9998" y1="3.2998" x2="8.9998" y2="17.6998" gradientUnits="userSpaceOnUse">
<stop stop-color="#2C4646"/>
<stop offset="1" stop-color="#678E96"/>
</linearGradient>
</defs>
</svg>
