<svg width="153" height="59" viewBox="0 0 153 59" fill="none" xmlns="http://www.w3.org/2000/svg">
<g clip-path="url(#clip0_100_36640)">
<mask id="mask0_100_36640" style="mask-type:luminance" maskUnits="userSpaceOnUse" x="0" y="0" width="153" height="59">
<path d="M153 0H0V59H153V0Z" fill="white"/>
</mask>
<g mask="url(#mask0_100_36640)">
<path d="M76.4037 14.8988L77.4757 14.9646L78.2228 11.4785L71.4012 11.3799L73.2203 2.9607L72.1483 3.42112L70.5241 11.9061H77.1184L76.4037 14.8988ZM68.6725 33.1513L70.2642 32.9869L70.8165 32.5922C70.8165 32.5922 68.1852 32.8553 67.9903 31.4083C67.763 29.4679 68.4451 27.1987 68.8999 24.5348C69.1922 22.7589 69.8744 19.2071 70.2642 16.9707L69.1923 17.0036C68.6725 19.5688 67.0808 27.3303 66.6585 29.9284C66.3337 31.8029 66.561 32.5594 66.8209 32.8225C67.0808 33.1184 67.7305 33.25 68.6725 33.1513ZM62.2731 11.4785H59.7719L59.6744 12.0047H62.1432L62.2731 11.4785ZM88.9101 18.4835H83.7776C83.7776 18.4835 84.1024 17.4969 84.8171 16.4774C83.9075 17.0694 83.2903 18.0231 82.868 18.8124H88.8776C88.9101 18.6809 88.9101 18.5822 88.9101 18.4835ZM87.5458 33.3158C88.4228 33.3158 89.2024 33.1513 89.6247 33.0198C87.6432 33.0198 84.9795 32.4607 83.7126 29.8297C82.9005 28.0867 82.7381 25.4886 82.7381 23.5482H81.7311C81.6986 25.653 81.8935 29.3364 83.0954 31.0794C84.1999 32.5594 85.6617 33.3158 87.5458 33.3158ZM96.284 17.9245C96.4464 18.944 96.3814 20.0293 96.284 20.9172H97.2585C97.2585 20.9172 97.4859 19.3386 97.3235 17.6614C97.0961 15.5895 95.3094 11.2812 89.3973 11.2812C88.5528 11.2812 87.7731 11.347 87.026 11.4456C87.2209 11.4456 87.4158 11.4128 87.5782 11.4128C95.212 11.4456 95.9591 15.9841 96.284 17.9245ZM54.3795 13.7478C55.7438 15.721 55.2566 18.3191 54.9642 19.8648C54.8993 20.1608 54.8668 20.4239 54.8343 20.6212C54.6394 22.1012 52.8528 30.7177 52.2031 33.7762L53.5024 32.9211C53.5024 32.9211 55.5165 23.022 56.1337 18.7138C56.7833 14.4055 55.7763 11.8403 53.405 11.5772C52.463 11.4785 51.391 11.4128 50.254 11.5443C50.319 11.5443 50.384 11.5443 50.4489 11.5772C52.2356 11.8403 53.5674 12.5967 54.3795 13.7478ZM124.48 11.6101H116.684L116.327 12.0047H123.018L111.779 24.4362L116.457 33.9077L117.691 32.954L113.468 24.0415L124.48 11.6101ZM100.864 11.4785L101.059 11.8732H106.224L108.985 17.6285L110.09 16.3788L107.718 11.4785H100.864ZM22.3827 38.3475L11.9553 42.5242C11.9553 42.5242 21.9604 53.4757 46.1286 57.8498C86.8311 65.2165 104.925 33.9735 104.925 33.9735C66.1712 72.978 22.3827 38.3475 22.3827 38.3475ZM116.034 22.5945C132.796 6.6112 151.085 6.61119 151.085 6.61119L152.611 0.921678C130.62 2.89492 116.034 22.5945 116.034 22.5945ZM42.1005 14.7344C42.4903 14.3726 42.9126 14.0109 43.3674 13.682L43.7897 11.6101H37.6827L37.6502 12.0376H42.5878L42.1005 14.7344ZM37.7477 36.9334L38.6247 36.9663C38.6247 36.9663 39.8916 30.0928 41.0935 25.5872C41.7107 23.1864 42.3604 21.1474 43.3024 19.5359C41.9706 21.0488 40.5413 23.5482 39.8916 26.8369C38.8521 31.9674 37.9751 35.9796 37.7477 36.9334ZM13.8069 32.6251C8.90181 31.211 9.64894 22.4629 11.1757 16.7076C12.2802 12.5638 13.4496 9.37374 15.0413 7.26894C12.5725 8.6831 10.8509 12.0047 9.16168 18.2533C8.02474 22.4958 7.31009 28.4484 9.16168 31.2767C9.71391 32.1318 10.4935 32.6251 11.4681 32.7896C11.7604 32.8225 12.0852 32.8553 12.3776 32.8553C12.8974 32.8225 13.3521 32.7567 13.8069 32.6251ZM28.7171 4.53929C31.6082 8.22268 32.1279 14.2411 30.2763 21.9367C29.2044 26.3436 27.5152 29.8955 25.2413 32.5922C28.2298 29.9941 30.4712 26.0148 31.7706 20.4568C34.3368 9.57106 32.4528 0.494141 22.0254 0.494141C21.5706 0.494141 21.1158 0.494138 20.661 0.527025C24.1693 0.855899 26.8655 2.1714 28.7171 4.53929Z" fill="#1BA2DD"/>
<path d="M50.2537 12.6292C44.6989 11.7413 40.3461 18.3188 40.3461 18.3188L41.3206 13.0568H35.3435L30.5684 36.933H36.6429C36.6429 36.933 37.6174 32.559 38.8193 26.6393C40.0212 20.7195 43.497 17.1019 45.3486 16.9046C47.2002 16.6744 48.4021 17.7926 47.6225 21.2786C46.8754 24.7976 44.3416 37.0317 44.3416 37.0317H47.2652L50.8709 34.6309C50.8709 34.6309 53.4696 22.2653 53.697 20.4893C53.9569 18.7463 55.8085 13.5172 50.2537 12.6292ZM19.069 1.67773C11.4353 1.67773 4.48366 5.03225 1.1378 18.0228C-2.37048 31.7039 2.95691 37.6894 11.5652 37.5579C20.1735 37.4263 26.4429 32.5261 29.0741 21.6404C31.7378 10.7547 29.7888 1.67773 19.069 1.67773ZM22.4149 20.8182C20.6282 29.0401 16.99 34.7954 11.3053 33.9403C5.6206 33.0852 6.36774 23.8767 7.99194 17.8912C10.2658 9.57071 12.8321 5.19669 18.3868 5.19669C23.9416 5.19669 24.234 12.5964 22.4149 20.8182ZM120.582 13.0568H114.475L108.693 19.5027L105.542 12.9252H98.6875L104.145 24.4358L91.8333 36.933L98.1352 37.0317L105.964 29.2703L109.894 37.1632H111.844L115.449 34.4336L110.447 24.2385L120.582 13.0568ZM82.283 31.671C80.3015 28.8756 80.7563 22.4626 80.7563 22.4626H94.9193C94.9193 22.4626 95.569 20.0618 95.2442 18.0886C94.9193 16.1153 94.2696 12.4977 87.6104 12.4977C80.9837 12.4977 76.6308 16.1153 74.9741 22.2324C73.3499 28.3494 72.7002 37.9854 85.6289 37.4592L90.404 33.8416C90.4365 33.8745 85.304 35.9464 82.283 31.671ZM86.7658 14.8327C90.8263 14.8985 89.8843 19.8645 89.8843 19.8645H81.3735C81.341 19.8645 82.7053 14.7669 86.7658 14.8327ZM65.6187 29.6978C66.1709 26.5077 68.3474 15.8851 68.3474 15.8851L75.104 15.7864L75.7537 12.9252H69.2244L70.9786 3.8483L64.2219 7.56458L63.02 13.0239H58.6671L58.1149 15.7535H62.5652C62.5652 15.7535 60.811 24.1069 60.1614 27.2641C59.2843 31.5395 58.4072 33.8416 60.0639 35.6833C61.6881 37.5579 63.9945 37.4263 63.9945 37.4263L68.7696 34.1376C65.7161 34.5323 65.0665 32.8879 65.6187 29.6978Z" fill="#24305D"/>
</g>
</g>
<defs>
<clipPath id="clip0_100_36640">
<rect width="153" height="59" fill="white"/>
</clipPath>
</defs>
</svg>
