<svg width="64" height="90" viewBox="0 0 64 90" fill="none" xmlns="http://www.w3.org/2000/svg">
<mask id="mask0_1831_23046" style="mask-type:alpha" maskUnits="userSpaceOnUse" x="22" y="13" width="20" height="53">
<rect x="22" y="13" width="20" height="53" fill="url(#paint0_linear_1831_23046)"/>
</mask>
<g mask="url(#mask0_1831_23046)">
<path fill-rule="evenodd" clip-rule="evenodd" d="M32 1C14.907 1 1 15.1152 1 32.4642C1 40.4835 5.342 46.0364 9.542 51.4076L9.54517 51.4117C11.4982 53.9093 13.5179 56.4922 15.134 59.3366C15.897 60.6805 16.071 65.6518 16.001 68.4704C16.0004 68.494 16.0059 68.5156 16.0114 68.5371C16.0154 68.5525 16.0193 68.5679 16.021 68.5841C16.0193 68.5988 16.0154 68.6127 16.0115 68.6267C16.0063 68.6456 16.001 68.6646 16.001 68.6856V78.8353C16.001 78.9672 16.028 79.0992 16.078 79.223C16.129 79.3468 16.202 79.4595 16.294 79.5529L21.016 84.3456C21.237 87.5011 23.837 90 27.001 90H37.001C40.165 90 42.765 87.5011 42.986 84.3456L47.708 79.5529C47.8 79.4595 47.873 79.3468 47.924 79.223C47.973 79.0982 48 78.9672 48 78.8343V68.6845C48 68.6652 47.995 68.6474 47.9899 68.6294C47.9856 68.6144 47.9814 68.5992 47.98 68.583C47.9805 68.5765 47.9815 68.5701 47.9827 68.5637C47.9846 68.5534 47.9872 68.5433 47.9898 68.5332C47.9952 68.5124 48.0006 68.4915 48 68.4694C47.93 65.6518 48.104 60.6794 48.867 59.3356C50.485 56.4886 52.5053 53.9041 54.4593 51.4063C58.6582 46.0362 63 40.4833 63 32.4642C63 15.1142 49.093 1 32 1ZM32 25.0914L35.382 31.9567H28.618L32 25.0914ZM28 57.331V33.9866H36V33.99H37.8931V34.0944H38V32.9717C38 32.9641 37.998 32.9574 37.996 32.9506C37.9949 32.947 37.9938 32.9433 37.993 32.9395C37.9926 32.9371 37.9922 32.9346 37.992 32.9321C37.988 32.8265 37.967 32.724 37.93 32.6225C37.927 32.6142 37.9244 32.6058 37.9219 32.5974C37.9199 32.5909 37.9179 32.5844 37.9157 32.5779C37.9131 32.5705 37.9103 32.563 37.907 32.5555C37.9051 32.551 37.9037 32.5461 37.9023 32.5412C37.9013 32.5378 37.9004 32.5343 37.8993 32.5309C37.8979 32.5261 37.8962 32.5214 37.894 32.517L33 22.5814V17.7461C33 17.1858 32.552 16.7311 32 16.7311C31.448 16.7311 31 17.1858 31 17.7461V22.5814L26.105 32.517C26.099 32.5291 26.097 32.5423 26.092 32.5555C26.0881 32.5639 26.0849 32.5726 26.082 32.5814C26.0803 32.5867 26.0787 32.5921 26.0771 32.5974C26.0745 32.6058 26.072 32.6142 26.069 32.6225C26.033 32.723 26.012 32.8265 26.007 32.9321C26.007 32.9386 26.0053 32.9448 26.0036 32.9511C26.0018 32.9577 26 32.9644 26 32.9717V67.6706H18.012C18.027 65.529 17.95 60.2298 16.866 58.3237C15.177 55.3503 13.1119 52.709 11.1151 50.1551L11.108 50.146C6.938 44.8124 3 39.775 3 32.4642C3 16.2337 16.009 3.02995 32 3.02995C47.991 3.02995 61 16.2337 61 32.4642C61 39.775 57.062 44.8124 52.892 50.145L52.8888 50.1491C50.8898 52.7056 48.8241 55.3473 47.134 58.3227C46.05 60.2298 45.973 65.528 45.988 67.6696H38V38.1871C38 37.6348 37.5354 37.1871 36.9831 37.1871C36.4308 37.1871 36 37.6348 36 38.1871V57.331H28ZM36 59.361V67.4808H28V59.361H36ZM46 69.6995V77.8193H18V69.6995H46ZM22.414 82.8942L19.414 79.8493H44.586L41.586 82.8942H22.414ZM27 87.969C25.142 87.969 23.589 86.6699 23.142 84.9241H40.858C40.411 86.6709 38.858 87.969 37 87.969H27Z" fill="url(#paint1_linear_1831_23046)" stroke="#F7F7F7" stroke-width="0.600175"/>
</g>
<path d="M15.8909 67.8094L15.7475 67.7926L15.7235 67.7859L15.7473 67.7926L15.9048 67.8369M15.8909 67.8094L16.021 67.8247M15.8909 67.8094L16.0114 67.7782M15.8909 67.8094L16.0114 67.7782M16.021 67.8247L15.9048 67.8369M16.021 67.8247C16.0193 67.8087 16.0154 67.7935 16.0114 67.7782M16.021 67.8247C16.0193 67.8392 16.0154 67.853 16.0115 67.8669L15.9048 67.8369M15.9048 67.8369L16.0114 67.7782M54.6947 51.026L54.6947 51.026L54.7163 50.9987C58.9013 45.7065 63.3001 40.144 63.3001 32.1107C63.3001 14.7909 49.2597 0.699913 32 0.699913C14.7403 0.699913 0.699913 14.7919 0.699913 32.1107C0.699913 40.1443 5.09901 45.7069 9.28513 51.0002L9.30662 51.0274L9.30675 51.0276L9.30986 51.0315C10.4196 52.4348 11.5458 53.8588 12.6069 55.3408C13.034 55.9373 13.8722 56.0787 14.4649 55.6336C15.0215 55.2156 15.1535 54.4286 14.7448 53.857C13.6442 52.3174 12.4848 50.8511 11.3525 49.4192L11.3505 49.4167L11.3434 49.4077L11.108 49.5938L11.3434 49.4077C7.16465 44.1229 3.30009 39.2204 3.30009 32.1107C3.30009 16.2273 16.1757 3.30723 32 3.30723C47.8243 3.30723 60.6999 16.2273 60.6999 32.1107C60.6999 39.2204 56.8353 44.1229 52.6566 49.4067L52.6536 49.4105L52.6534 49.4107L52.6472 49.4186C50.6522 51.9413 48.575 54.5679 46.8738 57.529C46.5784 58.0429 46.3627 58.7619 46.2014 59.561C46.0389 60.3657 45.9268 61.2759 45.8499 62.1873C45.7096 63.8481 45.6842 65.5306 45.6865 66.6204H42.6044H42.3043V66.627H18.3727V66.6214H18.3143L18.3143 66.6172H18.012H16.0137H15.7159L15.7136 66.9151C15.7115 67.1927 15.7072 67.4573 15.701 67.7048L15.701 67.7048C15.6998 67.7516 15.7069 67.7938 15.7131 67.8219C15.7072 67.8479 15.7009 67.8845 15.7009 67.925V77.9607C15.7009 78.1325 15.7364 78.3013 15.8002 78.4576L15.801 78.4595C15.8661 78.6159 15.9603 78.7605 16.0814 78.8821L20.7256 83.5429C21.0114 86.7646 23.7155 89.3001 27.001 89.3001H37.001C40.2865 89.3001 42.9906 86.7646 43.2764 83.5429L47.9206 78.8821C48.0417 78.7606 48.1359 78.6159 48.2011 78.4595L48.2029 78.4548C48.2645 78.2996 48.3001 78.1326 48.3001 77.9597V67.924C48.3001 67.8834 48.2935 67.8465 48.2875 67.8209C48.2938 67.7933 48.3012 67.7506 48.3 67.7037C48.2652 66.3192 48.2911 64.4037 48.4204 62.6716C48.485 61.8053 48.5752 60.9901 48.6953 60.3124C48.8172 59.6242 48.9645 59.113 49.1272 58.8296C50.7324 56.037 52.7385 53.4985 54.6947 51.026ZM18.3001 69.2277H45.6999V76.6561H18.3001V69.2277ZM22.5386 81.6739L20.1367 79.2634H43.8633L41.4614 81.6739H22.5386ZM27 86.6918C25.422 86.6918 24.0785 85.6878 23.5511 84.2812H40.449C39.9217 85.6884 38.5781 86.6918 37 86.6918H27Z" fill="url(#paint2_linear_1831_23046)" stroke="url(#paint3_linear_1831_23046)" stroke-width="0.600175"/>
<defs>
<linearGradient id="paint0_linear_1831_23046" x1="32" y1="13" x2="32" y2="66" gradientUnits="userSpaceOnUse">
<stop stop-color="#2C4646"/>
<stop offset="1" stop-color="#678E96"/>
</linearGradient>
<linearGradient id="paint1_linear_1831_23046" x1="32" y1="1" x2="32" y2="90" gradientUnits="userSpaceOnUse">
<stop stop-color="#2C4646"/>
<stop offset="1" stop-color="#678E96"/>
</linearGradient>
<linearGradient id="paint2_linear_1831_23046" x1="-19.3333" y1="-47.2581" x2="92.9157" y2="70.2903" gradientUnits="userSpaceOnUse">
<stop stop-color="#AD8557"/>
<stop offset="1" stop-color="#D4C8B6"/>
</linearGradient>
<linearGradient id="paint3_linear_1831_23046" x1="-19.3333" y1="-47.2581" x2="92.9157" y2="70.2903" gradientUnits="userSpaceOnUse">
<stop stop-color="#AD8557"/>
<stop offset="1" stop-color="#D4C8B6"/>
</linearGradient>
</defs>
</svg>
