<svg width="70" height="59" viewBox="0 0 70 59" fill="none" xmlns="http://www.w3.org/2000/svg">
<path d="M2.74603 31.1109L10.3244 24.4857C10.6857 24.1701 10.8923 23.7138 10.8923 23.2342V9.92517H15.609V16.2148C15.609 16.866 15.9891 17.4574 16.5802 17.7265C17.1746 17.9979 17.8674 17.8949 18.3557 17.4663L28.7857 8.34695L53.4333 29.8959L50.396 33.3891L29.8751 15.4495C29.252 14.9035 28.3206 14.9035 27.6963 15.4495L5.78554 34.6051C5.42425 34.9208 5.21763 35.3771 5.21763 35.8566V56.4055C5.21763 57.3225 5.95901 58.0668 6.87495 58.0668H47.1675C48.0824 58.0668 48.8249 57.3225 48.8249 56.4055V39.3442C48.8249 38.4261 48.0824 37.6829 47.1675 37.6829H21.6814C20.7654 37.6829 20.0241 38.4261 20.0241 39.3442V49.2122C20.0241 50.1303 20.7654 50.8735 21.6814 50.8735C22.5973 50.8735 23.3387 50.1303 23.3387 49.2122V41.0055H45.5102V54.7442H8.53226V36.613L28.7857 18.906L49.4657 36.9852C49.7983 37.2753 50.2336 37.4249 50.6689 37.3905C51.1064 37.3606 51.5163 37.1568 51.8047 36.8246L57.0208 30.8263C57.6219 30.1352 57.5501 29.0864 56.8606 28.4828L29.8575 4.87599C29.1691 4.2735 28.1217 4.34438 27.5195 5.03547L18.9236 12.5611V8.26389C18.9236 7.34576 18.1822 6.60261 17.2663 6.60261H9.23607C8.32013 6.60261 7.57875 7.34576 7.57875 8.26389V22.4778L0.568318 28.6068C-0.122229 29.2093 -0.192939 30.2592 0.408113 30.9503C1.01027 31.6436 2.05769 31.7134 2.74603 31.1109Z" fill="url(#paint0_linear_1831_2005)" stroke="#F7F7F7" stroke-width="0.829524"/>
<g clip-path="url(#clip0_1831_2005)">
<path fill-rule="evenodd" clip-rule="evenodd" d="M65.3107 15.2663L65.1744 16.0414C63.4318 25.9444 52.1529 31.0644 43.9541 25.698L43.3132 25.2784L43.4496 24.5033C45.192 14.6003 56.471 9.48035 64.6698 14.8468L65.3107 15.2663ZM47.4234 24.7206L53.8939 21.7777C54.5102 21.4974 54.8023 20.7757 54.5464 20.1657C54.2906 19.5557 53.5835 19.2885 52.9673 19.5688L46.4846 22.5172C48.999 16.1803 56.6323 13.1405 62.6293 16.4929C60.9513 23.3214 53.6328 27.0948 47.4234 24.7206ZM43.0326 6.08846C43.4763 5.81984 44.0296 5.85407 44.4156 6.17404C46.492 7.89483 47.3363 10.4678 47.1977 13.0719C47.162 13.7431 46.5929 14.2783 45.9266 14.2673C45.2602 14.2563 44.749 13.7033 44.7847 13.032C44.8742 11.35 44.4308 9.81468 43.4524 8.67626C41.4167 10.1907 40.1019 12.3999 39.6527 14.608C39.3287 16.2013 39.4619 17.7312 40.0468 18.9922L40.7773 15.7612C40.9264 15.1018 41.5746 14.669 42.225 14.7946C42.8754 14.9202 43.2818 15.5566 43.1327 16.2161L41.8278 21.9871C41.7332 22.4056 41.4293 22.7519 41.0269 22.8997C40.6245 23.0476 40.1824 22.9753 39.8615 22.7094C37.3545 20.6318 36.6505 17.3307 37.2859 14.2063C37.9222 11.0783 39.9169 7.97464 43.0326 6.08846Z" fill="url(#paint1_linear_1831_2005)" stroke="#F7F7F7" stroke-width="0.127619"/>
</g>
<defs>
<linearGradient id="paint0_linear_1831_2005" x1="-18.8341" y1="-24.9268" x2="42.8131" y2="73.2483" gradientUnits="userSpaceOnUse">
<stop stop-color="#AD8557"/>
<stop offset="1" stop-color="#D4C8B6"/>
</linearGradient>
<linearGradient id="paint1_linear_1831_2005" x1="56.2447" y1="8.64789" x2="43.8291" y2="25.655" gradientUnits="userSpaceOnUse">
<stop stop-color="#2C4646"/>
<stop offset="1" stop-color="#678E96"/>
</linearGradient>
<clipPath id="clip0_1831_2005">
<rect width="32.5429" height="17.6409" fill="white" transform="translate(45.3049 -4.46655) rotate(41.0351)"/>
</clipPath>
</defs>
</svg>
