<svg width="95" height="92" viewBox="0 0 95 92" fill="none" xmlns="http://www.w3.org/2000/svg">
<path d="M72.0018 0.236328H43.9768C37.881 0.236328 32.1018 2.5953 27.7477 6.88077C26.956 7.6671 26.2831 8.45342 25.6497 9.27906C25.0164 10.144 25.1747 11.3628 26.0456 11.9919C26.9164 12.6209 28.1435 12.4637 28.7768 11.5987C29.2518 10.9303 29.8456 10.3013 30.4789 9.67222C34.081 6.09445 38.8706 4.12864 43.9372 4.12864H71.9622C82.4518 4.12864 91.0018 12.6209 91.0018 23.0397C91.0018 28.0722 89.0227 32.8295 85.4206 36.4073C81.8185 39.985 77.0289 41.9509 71.9622 41.9509H43.9372C40.6914 41.9509 37.5643 41.1645 34.7143 39.5526C30.756 37.3902 27.7477 33.9303 26.1643 29.7628C25.7685 28.7406 24.6602 28.2688 23.631 28.6227C22.6018 29.0158 22.0872 30.1167 22.4831 31.1389C24.3831 36.1714 28.0643 40.3782 32.8143 42.9731C36.2185 44.8603 40.0581 45.8432 43.9372 45.8432H71.9622C78.0977 45.8432 83.8372 43.4842 88.1914 39.1594C92.5456 34.8346 94.9206 29.1338 94.9206 23.0397C94.9602 10.4979 84.6685 0.236328 72.0018 0.236328Z" fill="url(#paint0_linear_1831_23002)"/>
<path d="M82.8475 23.0404C82.8475 23.4728 83.2038 23.8267 83.6392 23.8267C84.0746 23.8267 84.4309 23.4728 84.4309 23.0404C84.4309 16.2386 78.8496 10.7344 72.0413 10.7344H44.0163C43.5809 10.7344 43.2246 11.0882 43.2246 11.5207C43.2246 11.9532 43.5809 12.307 44.0163 12.307H72.0413C77.9788 12.307 82.8475 17.1036 82.8475 23.0404Z" fill="url(#paint1_linear_1831_23002)"/>
<path d="M0.0390625 41.1256V68.9615C0.0390625 75.0162 2.41406 80.7564 6.72865 85.0812C11.0828 89.406 16.862 91.7649 22.9974 91.7649C35.6641 91.7649 45.9557 81.5427 45.9557 68.9615V54.0214C45.9557 52.9598 45.0849 52.0949 44.0161 52.0949C42.9474 52.0949 42.0766 52.9598 42.0766 54.0214V68.9615C42.0766 79.3803 33.5266 87.8726 23.037 87.8726C17.9307 87.8726 13.1411 85.9068 9.53906 82.329C5.93698 78.7513 3.95781 73.994 3.95781 68.9615V41.1256C3.95781 30.7068 12.5078 22.2145 22.9974 22.2145C23.9078 22.2145 24.6995 22.2931 25.412 22.4111L26.1245 22.529H26.1641C30.0432 23.1188 33.6057 24.9273 36.4557 27.7581C38.3953 29.6846 39.8599 31.9649 40.7703 34.4419C41.1266 35.4641 42.2349 35.9752 43.2641 35.6214C44.2932 35.2675 44.8078 34.1273 44.4516 33.1444C43.3828 30.1564 41.562 27.3649 39.2266 25.0453C35.7036 21.5855 31.3099 19.3837 26.4807 18.7154C26.2828 18.6761 26.1245 18.6367 25.9661 18.6367C25.0953 18.4795 24.1057 18.4008 22.9974 18.4008C10.3307 18.3222 0.0390625 28.5444 0.0390625 41.1256Z" fill="url(#paint2_linear_1831_23002)"/>
<path d="M12.151 40.3398C11.7156 40.3398 11.3594 40.6937 11.3594 41.1262V68.9621C11.3594 72.0287 12.5865 74.9381 14.7635 77.1398C16.9406 79.3022 19.8698 80.4817 22.9573 80.4817C23.3927 80.4817 23.749 80.1279 23.749 79.6954C23.749 79.2629 23.3927 78.9091 22.9573 78.9091C20.2656 78.9091 17.7323 77.8869 15.8719 75.9997C13.9719 74.1125 12.9031 71.5963 12.9031 68.9228V41.0869C12.9427 40.6937 12.5865 40.3398 12.151 40.3398Z" fill="url(#paint3_linear_1831_23002)"/>
<defs>
<linearGradient id="paint0_linear_1831_23002" x1="58.6351" y1="0.236328" x2="58.6351" y2="45.8432" gradientUnits="userSpaceOnUse">
<stop stop-color="#2C4646"/>
<stop offset="1" stop-color="#678E96"/>
</linearGradient>
<linearGradient id="paint1_linear_1831_23002" x1="63.8277" y1="10.7344" x2="63.8277" y2="23.8267" gradientUnits="userSpaceOnUse">
<stop stop-color="#2C4646"/>
<stop offset="1" stop-color="#678E96"/>
</linearGradient>
<linearGradient id="paint2_linear_1831_23002" x1="-15.0196" y1="-21.8318" x2="78.4165" y2="65.089" gradientUnits="userSpaceOnUse">
<stop stop-color="#AD8557"/>
<stop offset="1" stop-color="#D4C8B6"/>
</linearGradient>
<linearGradient id="paint3_linear_1831_23002" x1="7.29612" y1="18.3266" x2="46.149" y2="36.1507" gradientUnits="userSpaceOnUse">
<stop stop-color="#AD8557"/>
<stop offset="1" stop-color="#D4C8B6"/>
</linearGradient>
</defs>
</svg>
