<svg width="64" height="54" viewBox="0 0 64 54" fill="none" xmlns="http://www.w3.org/2000/svg">
<path d="M62.9677 15.5999V3.76744C62.9677 3.56517 62.9677 3.33762 62.9167 3.11008C62.5856 1.39083 61.0827 0.177246 59.3251 0.177246C58.1279 0.177246 50.8173 0.177246 46.9455 0.177246H45.3663C44.271 0.177246 43.3794 0.505925 42.6917 1.16328C41.9784 1.84593 41.6218 2.75611 41.6218 3.86857V5.51196C41.6218 14.538 41.6218 19.9486 41.6218 27.3312C41.6218 27.7357 41.6728 28.1403 41.7747 28.4689C42.2077 30.0618 43.6341 31.0731 45.3917 31.0731C45.3917 31.0731 45.3917 31.0731 45.4172 31.0731L48.0663 31.0478C49.3145 31.0478 50.5626 31.0225 51.8108 31.0225C53.9759 31.0225 57.0581 31.0225 59.2487 31.0478H59.2742C60.3185 31.0478 61.261 30.6686 61.9742 29.9859C62.6875 29.278 63.0695 28.3172 63.0695 27.2806C63.0441 24.4995 63.0441 21.6931 63.0441 18.912L62.9677 15.5999ZM60.1148 28.2414C59.8855 28.4689 59.5798 28.5701 59.2232 28.5701C57.0326 28.5701 53.9504 28.5448 51.7853 28.5448C50.5372 28.5448 49.289 28.5448 48.0409 28.5701L45.3917 28.5954C45.0861 28.6206 44.3983 28.5195 44.1945 27.8116C44.1691 27.6852 44.1436 27.5082 44.1436 27.3312C44.1436 19.9486 44.1436 14.5633 44.1436 5.51196V3.86857C44.1436 3.31234 44.2964 3.08479 44.4493 2.95838C44.5766 2.83196 44.8059 2.68026 45.3663 2.68026H46.9455C48.9324 2.68026 51.8362 2.68026 54.3325 2.68026C56.7015 2.68026 58.7392 2.68026 59.3251 2.68026C59.911 2.68026 60.3695 3.03423 60.4714 3.61574C60.4714 3.6663 60.4714 3.74215 60.4714 3.79272V18.9625C60.4714 21.7689 60.4714 24.5501 60.4968 27.3565C60.4714 27.6852 60.344 28.0139 60.1148 28.2414Z" fill="url(#paint0_linear_1831_23446)"/>
<path d="M52.2948 25.7634C51.8617 25.7634 51.5051 26.1174 51.5051 26.5725C51.5051 27.0276 51.8617 27.3815 52.3202 27.3815C52.7533 27.3815 53.1354 27.0276 53.1354 26.5725C53.1099 26.1174 52.7278 25.7634 52.2948 25.7634Z" fill="url(#paint1_linear_1831_23446)"/>
<path d="M58.561 23.6648H46.0031C45.7229 23.6648 45.4937 23.8923 45.4937 24.1705C45.4937 24.4486 45.7229 24.6761 46.0031 24.6761H58.561C58.8412 24.6761 59.0704 24.4486 59.0704 24.1705C59.0704 23.8923 58.8412 23.6648 58.561 23.6648Z" fill="url(#paint2_linear_1831_23446)"/>
<path d="M33.2923 47.0518C33.2414 47.5322 32.8083 47.8861 32.3244 47.8861H27.128C26.6186 47.8861 26.211 47.5322 26.1346 47.0012L25.9563 45.7371L4.8397 45.8129C4.15194 45.8129 3.59155 46.3691 3.59155 47.0771C3.59155 47.7597 4.15194 48.3159 4.8397 48.3159L23.893 48.2654C24.4279 49.5295 25.6761 50.3891 27.128 50.3891H32.3244C33.7763 50.3891 35.0499 49.5042 35.5594 48.2654L54.6127 48.3159C55.3004 48.3159 55.8608 47.7597 55.8608 47.0771C55.8608 46.3944 55.3004 45.8382 54.6127 45.8129L33.4706 45.7623L33.2923 47.0518Z" fill="url(#paint3_linear_1831_23446)"/>
<path d="M53.5429 42.1469V34.3092C53.5429 33.6265 52.9825 33.0703 52.2948 33.0703C51.607 33.0703 51.0466 33.6265 51.0466 34.3092V42.1469C51.0466 42.8296 51.607 43.3858 52.2948 43.3858C52.9825 43.3858 53.5429 42.8296 53.5429 42.1469Z" fill="url(#paint4_linear_1831_23446)"/>
<path d="M8.4058 42.147V16.3584C8.4058 14.5885 9.85772 13.1474 11.6663 13.1474H38.3358C39.0236 13.1474 39.584 12.5912 39.584 11.9085C39.584 11.2259 39.0236 10.6697 38.3358 10.6697H11.6663C8.48221 10.6697 5.88403 13.2233 5.88403 16.3836V42.147C5.88403 42.8297 6.44442 43.3859 7.13218 43.3859C7.81993 43.3859 8.4058 42.8297 8.4058 42.147Z" fill="url(#paint5_linear_1831_23446)"/>
<path d="M0.68767 46.5208C0.407474 46.5208 0.178223 46.7483 0.178223 47.0264V48.0124C0.178223 51.0211 2.64904 53.4736 5.65478 53.4736H53.7466C56.7778 53.4736 59.2231 51.0211 59.2231 48.0124V47.0264C59.2231 46.7483 58.9939 46.5208 58.7137 46.5208C58.4335 46.5208 58.2042 46.7483 58.2042 47.0264V48.0124C58.2042 50.4649 56.1919 52.4623 53.7211 52.4623H5.68025C3.20943 52.4623 1.19712 50.4649 1.19712 48.0124V47.0264C1.19712 46.7483 0.967865 46.5208 0.68767 46.5208Z" fill="url(#paint6_linear_1831_23446)"/>
<defs>
<linearGradient id="paint0_linear_1831_23446" x1="52.3457" y1="0.177246" x2="52.3457" y2="31.0731" gradientUnits="userSpaceOnUse">
<stop stop-color="#2C4646"/>
<stop offset="1" stop-color="#678E96"/>
</linearGradient>
<linearGradient id="paint1_linear_1831_23446" x1="50.9705" y1="24.8761" x2="52.879" y2="27.734" gradientUnits="userSpaceOnUse">
<stop stop-color="#AD8557"/>
<stop offset="1" stop-color="#D4C8B6"/>
</linearGradient>
<linearGradient id="paint2_linear_1831_23446" x1="52.282" y1="23.6648" x2="52.282" y2="24.6761" gradientUnits="userSpaceOnUse">
<stop stop-color="#2C4646"/>
<stop offset="1" stop-color="#678E96"/>
</linearGradient>
<linearGradient id="paint3_linear_1831_23446" x1="-13.5505" y1="43.1859" x2="-12.8417" y2="55.0241" gradientUnits="userSpaceOnUse">
<stop stop-color="#AD8557"/>
<stop offset="1" stop-color="#D4C8B6"/>
</linearGradient>
<linearGradient id="paint4_linear_1831_23446" x1="50.228" y1="27.4134" x2="58.6182" y2="30.4313" gradientUnits="userSpaceOnUse">
<stop stop-color="#AD8557"/>
<stop offset="1" stop-color="#D4C8B6"/>
</linearGradient>
<linearGradient id="paint5_linear_1831_23446" x1="-5.16809" y1="-7.27148" x2="33.0847" y2="51.2956" gradientUnits="userSpaceOnUse">
<stop stop-color="#AD8557"/>
<stop offset="1" stop-color="#D4C8B6"/>
</linearGradient>
<linearGradient id="paint6_linear_1831_23446" x1="-19.186" y1="42.7079" x2="-17.788" y2="60.3535" gradientUnits="userSpaceOnUse">
<stop stop-color="#AD8557"/>
<stop offset="1" stop-color="#D4C8B6"/>
</linearGradient>
</defs>
</svg>
