<svg width="95" height="94" viewBox="0 0 95 94" fill="none" xmlns="http://www.w3.org/2000/svg">
<path d="M47.694 0.193359C47.6552 0.193359 47.6552 0.193359 47.6165 0.193359C42.343 0.193359 37.9614 4.43106 37.8838 9.67041C37.8062 14.7942 42.3042 19.3401 47.5001 19.4557C47.5389 19.4557 47.6165 19.4557 47.6552 19.4557C50.0593 19.4557 52.4634 18.454 54.2858 16.6819C56.1858 14.8327 57.2716 12.3671 57.3103 9.90156C57.3491 7.39746 56.3409 4.97041 54.5185 3.12123C52.6573 1.27205 50.2144 0.231884 47.694 0.193359ZM51.5716 13.9466C50.4083 15.0639 48.9736 15.6802 47.5389 15.6417C44.4756 15.6032 41.645 12.7139 41.6838 9.74746C41.7226 6.62697 44.4369 4.00729 47.6165 4.00729H47.6552C49.1675 4.00729 50.6409 4.66221 51.7654 5.77942C52.8899 6.89664 53.4716 8.36057 53.4716 9.86303C53.4328 11.327 52.7736 12.8294 51.5716 13.9466Z" fill="url(#paint0_linear_1831_23025)"/>
<path d="M30.8252 30.2417V37.3302C30.8252 38.3704 31.6783 39.2179 32.7252 39.2179C33.7722 39.2179 34.6252 38.3704 34.6252 37.3302V30.1646C34.664 29.895 35.013 29.3556 36.215 28.9318C36.215 28.9318 39.9375 27.6605 42.0314 26.9671L47.6538 32.5532L53.3538 26.9671C55.4477 27.6605 59.1701 28.8933 59.1701 28.9318C60.3334 29.3171 60.7211 29.8179 60.7599 30.0105V37.3302C60.7599 38.3704 61.613 39.2179 62.6599 39.2179C63.7069 39.2179 64.5599 38.3704 64.5599 37.3302V30.2417C64.6375 28.8933 63.8232 26.4663 60.3722 25.3105C60.3722 25.3105 54.7109 23.4228 53.3538 22.9991L52.2681 22.6523L47.6926 27.1982L43.1171 22.6523L42.0314 22.9991C40.6742 23.4228 35.013 25.3105 35.013 25.3105C31.562 26.4663 30.7477 28.8933 30.8252 30.2417Z" fill="url(#paint1_linear_1831_23025)"/>
<path d="M17.1005 74.007C19.5046 74.007 21.9087 73.0053 23.7312 71.2332C25.6312 69.384 26.7556 66.9185 26.7556 64.4529C26.7944 61.9488 25.7863 59.5217 23.9638 57.6725C22.1414 55.8234 19.6985 54.7832 17.1393 54.7832C17.1005 54.7832 17.1005 54.7832 17.0618 54.7832C11.7883 54.7832 7.40666 59.0209 7.32911 64.2603C7.25156 69.384 11.7495 73.9299 16.9454 74.0455C17.023 74.007 17.0618 74.007 17.1005 74.007ZM11.2067 64.2988C11.2454 61.1783 13.9597 58.5586 17.1005 58.5586H17.1393C18.6516 58.5586 20.125 59.2135 21.2495 60.3307C22.374 61.448 22.9556 62.9119 22.9556 64.4144C22.9556 65.8783 22.2577 67.3807 21.0944 68.498C19.9312 69.6152 18.4965 70.2316 17.0618 70.193C13.9985 70.1545 11.1291 67.3037 11.2067 64.2988Z" fill="url(#paint2_linear_1831_23025)"/>
<path d="M0.309619 84.7925V91.881C0.309619 92.9212 1.16268 93.7687 2.20962 93.7687C3.25656 93.7687 4.10962 92.9212 4.10962 91.881V84.7154C4.14839 84.4457 4.49737 83.9064 5.69942 83.4826C5.69942 83.4826 9.42186 82.2113 11.5157 81.5179L17.1382 87.1039L22.7606 81.5179C24.8545 82.2113 28.577 83.4826 28.6157 83.4826C29.779 83.8679 30.128 84.3687 30.2055 84.5613V91.881C30.2055 92.9212 31.0586 93.7687 32.1055 93.7687C33.1525 93.7687 34.0055 92.9212 34.0055 91.881V84.7925C34.0831 83.4441 33.2688 81.0171 29.8178 79.8613C29.8178 79.8613 24.1566 77.9736 22.7994 77.5498L21.6749 77.2031L17.0994 81.749L12.5239 77.2031L11.3994 77.5498C10.0423 77.9736 4.38105 79.8613 4.38105 79.8613C1.04635 81.0171 0.232068 83.4826 0.309619 84.7925Z" fill="url(#paint3_linear_1831_23025)"/>
<path d="M78.0927 74.007C80.4968 74.007 82.9009 73.0053 84.7233 71.2332C86.6233 69.384 87.7478 66.9185 87.7478 64.4529C87.7866 61.9488 86.7784 59.5217 84.956 57.6725C83.1335 55.8234 80.6907 54.7832 78.1315 54.7832C78.0927 54.7832 78.0927 54.7832 78.054 54.7832C72.7805 54.7832 68.3989 59.0209 68.3213 64.2603C68.2437 69.384 72.7417 73.9299 77.9376 74.0455C77.9764 74.007 78.0152 74.007 78.0927 74.007ZM72.1601 64.2988C72.1989 61.1783 74.9131 58.5586 78.0927 58.5586H78.1315C79.6438 58.5586 81.1172 59.2135 82.2417 60.3307C83.3662 61.448 83.9478 62.9119 83.9478 64.4144C83.9478 65.8783 83.2499 67.3807 82.0866 68.498C80.9233 69.6152 79.4887 70.2316 78.054 70.193C74.9519 70.1545 72.1213 67.3037 72.1601 64.2988Z" fill="url(#paint4_linear_1831_23025)"/>
<path d="M61.265 84.7925V91.881C61.265 92.9212 62.1181 93.7687 63.165 93.7687C64.212 93.7687 65.065 92.9212 65.065 91.881V84.7154C65.1038 84.4457 65.4528 83.9064 66.6548 83.4826C66.6548 83.4826 70.3773 82.2113 72.4712 81.5179L78.0936 87.1039L83.7161 81.5179C85.8099 82.2113 89.5324 83.4826 89.5712 83.4826C90.7344 83.8679 91.1222 84.3687 91.161 84.5613V91.881C91.161 92.9212 92.014 93.7687 93.061 93.7687C94.1079 93.7687 94.9609 92.9212 94.9609 91.881V84.7925C95.0385 83.4441 94.2242 81.0171 90.7732 79.8613C90.7732 79.8613 85.112 77.9736 83.7548 77.5498L82.6303 77.2031L78.0548 81.749L73.4793 77.2031L72.3548 77.5498C70.9977 77.9736 65.3365 79.8613 65.3365 79.8613C62.0018 81.0171 61.2263 83.4826 61.265 84.7925Z" fill="url(#paint5_linear_1831_23025)"/>
<path d="M56.262 55.9004H54.4396C54.013 55.9004 53.6641 56.2471 53.6641 56.6709C53.6641 57.0947 54.013 57.4414 54.4396 57.4414H56.262C56.6886 57.4414 57.0375 57.0947 57.0375 56.6709C57.0375 56.2471 56.6886 55.9004 56.262 55.9004Z" fill="url(#paint6_linear_1831_23025)"/>
<path d="M41.0235 55.9004H39.1622C38.7357 55.9004 38.3867 56.2471 38.3867 56.6709C38.3867 57.0947 38.7357 57.4414 39.1622 57.4414H40.9847C41.4112 57.4414 41.7602 57.0947 41.7602 56.6709C41.7602 56.2471 41.4112 55.9004 41.0235 55.9004Z" fill="url(#paint7_linear_1831_23025)"/>
<path d="M47.7325 62.5645C47.306 62.5645 46.957 62.9112 46.957 63.3349V65.1456C46.957 65.5694 47.306 65.9161 47.7325 65.9161C48.1591 65.9161 48.5081 65.5694 48.5081 65.1456V63.3349C48.4693 62.9112 48.1591 62.5645 47.7325 62.5645Z" fill="url(#paint8_linear_1831_23025)"/>
<path d="M47.7325 47.4238C47.306 47.4238 46.957 47.7705 46.957 48.1943V50.005C46.957 50.4287 47.306 50.7755 47.7325 50.7755C48.1591 50.7755 48.5081 50.4287 48.5081 50.005V48.1943C48.4693 47.7705 48.1591 47.4238 47.7325 47.4238Z" fill="url(#paint9_linear_1831_23025)"/>
<path d="M62.8543 56.6711C62.8543 48.3883 56.0686 41.6465 47.7318 41.6465C39.3951 41.6465 32.6094 48.3883 32.6094 56.6711C32.6094 64.9539 39.3951 71.6957 47.7318 71.6957C56.0686 71.6957 62.8543 64.9539 62.8543 56.6711ZM47.7318 70.1932C40.2094 70.1932 34.1216 64.1448 34.1216 56.6711C34.1216 49.1973 40.2094 43.1489 47.7318 43.1489C55.2543 43.1489 61.342 49.1973 61.342 56.6711C61.342 64.1448 55.2155 70.1932 47.7318 70.1932Z" fill="url(#paint10_linear_1831_23025)"/>
<defs>
<linearGradient id="paint0_linear_1831_23025" x1="31.5111" y1="-10.3698" x2="54.22" y2="23.6754" gradientUnits="userSpaceOnUse">
<stop stop-color="#AD8557"/>
<stop offset="1" stop-color="#D4C8B6"/>
</linearGradient>
<linearGradient id="paint1_linear_1831_23025" x1="19.7536" y1="13.568" x2="32.3519" y2="51.7127" gradientUnits="userSpaceOnUse">
<stop stop-color="#AD8557"/>
<stop offset="1" stop-color="#D4C8B6"/>
</linearGradient>
<linearGradient id="paint2_linear_1831_23025" x1="0.956381" y1="44.22" x2="23.6653" y2="78.2652" gradientUnits="userSpaceOnUse">
<stop stop-color="#AD8557"/>
<stop offset="1" stop-color="#D4C8B6"/>
</linearGradient>
<linearGradient id="paint3_linear_1831_23025" x1="-10.7494" y1="68.1188" x2="1.86059" y2="106.255" gradientUnits="userSpaceOnUse">
<stop stop-color="#AD8557"/>
<stop offset="1" stop-color="#D4C8B6"/>
</linearGradient>
<linearGradient id="paint4_linear_1831_23025" x1="61.9486" y1="44.22" x2="84.6575" y2="78.2652" gradientUnits="userSpaceOnUse">
<stop stop-color="#AD8557"/>
<stop offset="1" stop-color="#D4C8B6"/>
</linearGradient>
<linearGradient id="paint5_linear_1831_23025" x1="50.2108" y1="68.1188" x2="62.8218" y2="106.254" gradientUnits="userSpaceOnUse">
<stop stop-color="#AD8557"/>
<stop offset="1" stop-color="#D4C8B6"/>
</linearGradient>
<linearGradient id="paint6_linear_1831_23025" x1="55.3508" y1="55.9004" x2="55.3508" y2="57.4414" gradientUnits="userSpaceOnUse">
<stop stop-color="#2C4646"/>
<stop offset="1" stop-color="#678E96"/>
</linearGradient>
<linearGradient id="paint7_linear_1831_23025" x1="40.0735" y1="55.9004" x2="40.0735" y2="57.4414" gradientUnits="userSpaceOnUse">
<stop stop-color="#2C4646"/>
<stop offset="1" stop-color="#678E96"/>
</linearGradient>
<linearGradient id="paint8_linear_1831_23025" x1="47.7325" y1="62.5645" x2="47.7325" y2="65.9161" gradientUnits="userSpaceOnUse">
<stop stop-color="#2C4646"/>
<stop offset="1" stop-color="#678E96"/>
</linearGradient>
<linearGradient id="paint9_linear_1831_23025" x1="47.7325" y1="47.4238" x2="47.7325" y2="50.7755" gradientUnits="userSpaceOnUse">
<stop stop-color="#2C4646"/>
<stop offset="1" stop-color="#678E96"/>
</linearGradient>
<linearGradient id="paint10_linear_1831_23025" x1="47.7318" y1="41.6465" x2="47.7318" y2="71.6957" gradientUnits="userSpaceOnUse">
<stop stop-color="#2C4646"/>
<stop offset="1" stop-color="#678E96"/>
</linearGradient>
</defs>
</svg>
