<svg width="104" height="101" viewBox="0 0 104 101" fill="none" xmlns="http://www.w3.org/2000/svg">
<path fill-rule="evenodd" clip-rule="evenodd" d="M51.2116 29.3834L66.6507 55.0837C67.015 55.6919 67.0257 56.4512 66.6788 57.0697C66.3318 57.6882 65.6811 58.0697 64.9767 58.0677H34.0985C33.3941 58.0697 32.7434 57.6882 32.3964 57.0697C32.0495 56.4512 32.0602 55.6919 32.4245 55.0837L47.8636 29.3834C48.219 28.7936 48.8535 28.4336 49.5376 28.4336C50.2217 28.4336 50.8562 28.7936 51.2116 29.3834Z" stroke="url(#paint0_linear_1831_15329)" stroke-width="1.26667" stroke-linecap="round" stroke-linejoin="round"/>
<path d="M47.7383 38.642C47.7383 37.6392 48.5441 36.8262 49.5381 36.8262C50.5321 36.8262 51.3379 37.6392 51.3379 38.642V44.0897C51.3379 45.0925 50.5321 45.9055 49.5381 45.9055C48.5441 45.9055 47.7383 45.0925 47.7383 44.0897V38.642Z" stroke="url(#paint1_linear_1831_15329)" stroke-width="1.26667" stroke-linecap="round" stroke-linejoin="round"/>
<path d="M49.5381 51.9579C48.5441 51.9579 47.7383 51.1449 47.7383 50.142C47.7383 49.1392 48.5441 48.3262 49.5381 48.3262C50.5321 48.3262 51.3379 49.1392 51.3379 50.142C51.3379 51.1449 50.5321 51.9579 49.5381 51.9579Z" stroke="url(#paint2_linear_1831_15329)" stroke-width="1.26667" stroke-linecap="round" stroke-linejoin="round"/>
<path d="M35.9793 55.9634H62.9023L62.5161 55.3301H36.3655L35.9793 55.9634Z" fill="url(#paint3_linear_1831_15329)"/>
<path d="M13.8126 99.8281H13.8049L13.7972 99.8278C10.1714 99.6805 6.74527 98.1286 4.24373 95.5006C1.74257 92.873 0.361977 89.3758 0.394028 85.7487V76.5818V76.2018H0.774025H15.2039L15.204 76.1984H15.5806H17.7905H18.1739L18.1739 76.2018H59.2267H59.6067V76.5818V85.8609C59.6067 88.7923 60.7715 91.6037 62.845 93.6766C64.9184 95.7495 67.7307 96.914 70.663 96.914C73.5954 96.914 76.4077 95.7495 78.4811 93.6766C80.5546 91.6037 81.7194 88.7923 81.7194 85.8609L81.7194 15.9365L81.7194 15.9334C81.7325 14.2914 82.1212 12.6741 82.8558 11.2054C83.4321 10.0531 84.2093 9.01617 85.1483 8.14204H25.9672C24.0346 8.14184 22.1796 8.90207 20.8033 10.2583C19.4274 11.6142 18.6404 13.4568 18.6124 15.388C18.6124 15.3885 18.6124 15.389 18.6124 15.3896L18.2434 66.4873C18.2375 67.3032 17.5744 67.9615 16.7585 67.9615C15.9342 67.9615 15.2676 67.2901 15.2736 66.4659L15.6425 15.3814L15.6426 15.3799C15.6728 12.6623 16.7739 10.0662 18.7069 8.15524C20.6399 6.24426 23.2488 5.17257 25.9672 5.17273H92.5966C92.5966 5.17273 92.5966 5.17273 92.5966 5.17273C95.4616 5.17258 98.211 6.3025 100.248 8.3171C102.284 10.3317 103.444 13.0683 103.474 15.9325L103.474 15.9325V15.9365V31.8434V32.2234H103.094H94.3238C93.5038 32.2234 92.8391 31.5587 92.8391 30.7388C92.8391 29.9188 93.5038 29.2541 94.3238 29.2541H100.504V15.9587C100.276 14.0413 99.3537 12.2732 97.911 10.9886C96.4628 9.69911 94.5912 8.98663 92.6518 8.98663C90.7125 8.98663 88.8408 9.69911 87.3927 10.9886C85.9499 12.2732 85.0278 14.0413 84.7998 15.9587V29.2541H84.8065V29.6341V31.8434V32.2234H84.7998V85.8609C84.7999 87.7047 84.4348 89.5302 83.7256 91.2323C83.0164 92.9343 81.9771 94.4791 80.6677 95.7776C79.3583 97.076 77.8047 98.1025 76.0965 98.7977C74.3887 99.4927 72.5601 99.8429 70.7161 99.8281C70.7158 99.8281 70.7155 99.8281 70.7152 99.8281L13.8126 99.8281ZM56.7472 85.7509V85.7504V79.1711H3.36395V85.8587C3.3925 88.7564 4.56388 91.5258 6.62358 93.5649C8.68364 95.6044 11.4658 96.7485 14.3651 96.7483H62.1274C60.6177 95.5715 59.3626 94.0942 58.4441 92.4054C57.3333 90.3629 56.7501 88.0756 56.7472 85.7509Z" fill="url(#paint4_linear_1831_15329)" stroke="url(#paint5_linear_1831_15329)" stroke-width="0.76"/>
<defs>
<linearGradient id="paint0_linear_1831_15329" x1="49.5376" y1="28.4336" x2="49.5376" y2="58.0677" gradientUnits="userSpaceOnUse">
<stop stop-color="#2C4646"/>
<stop offset="1" stop-color="#678E96"/>
</linearGradient>
<linearGradient id="paint1_linear_1831_15329" x1="49.5381" y1="36.8262" x2="49.5381" y2="45.9055" gradientUnits="userSpaceOnUse">
<stop stop-color="#2C4646"/>
<stop offset="1" stop-color="#678E96"/>
</linearGradient>
<linearGradient id="paint2_linear_1831_15329" x1="49.5381" y1="48.3262" x2="49.5381" y2="51.9579" gradientUnits="userSpaceOnUse">
<stop stop-color="#2C4646"/>
<stop offset="1" stop-color="#678E96"/>
</linearGradient>
<linearGradient id="paint3_linear_1831_15329" x1="49.4408" y1="55.3301" x2="49.4408" y2="55.9634" gradientUnits="userSpaceOnUse">
<stop stop-color="#2C4646"/>
<stop offset="1" stop-color="#678E96"/>
</linearGradient>
<linearGradient id="paint4_linear_1831_15329" x1="136.65" y1="-45.9385" x2="29.4614" y2="127.678" gradientUnits="userSpaceOnUse">
<stop stop-color="#AD8557"/>
<stop offset="1" stop-color="#D4C8B6"/>
</linearGradient>
<linearGradient id="paint5_linear_1831_15329" x1="136.65" y1="-45.9385" x2="29.4614" y2="127.678" gradientUnits="userSpaceOnUse">
<stop stop-color="#AD8557"/>
<stop offset="1" stop-color="#D4C8B6"/>
</linearGradient>
</defs>
</svg>
