<svg width="101" height="101" viewBox="0 0 101 101" fill="none" xmlns="http://www.w3.org/2000/svg">
<path fill-rule="evenodd" clip-rule="evenodd" d="M8.13842 1C4.19801 1 1 4.16801 1 8.07143V92.9286C1 96.832 4.19801 100 8.13842 100H43.8305C45.144 100 46.21 98.944 46.21 97.6429C46.21 96.3417 45.144 95.2857 43.8305 95.2857H8.13842C6.82495 95.2857 5.75895 94.2297 5.75895 92.9286V8.07143C5.75895 6.77029 6.82495 5.71428 8.13842 5.71428H70.0047C71.3182 5.71428 72.3842 6.77029 72.3842 8.07143V41.0714C72.3842 42.3726 73.4502 43.4286 74.7637 43.4286C76.0771 43.4286 77.1432 42.3726 77.1432 41.0714V8.07143C77.1432 4.16801 73.9451 1 70.0047 1H8.13842ZM15.2768 10.4286C12.6499 10.4286 10.5179 12.5406 10.5179 15.1429V19.8571C10.5179 22.4594 12.6499 24.5714 15.2768 24.5714H62.8663C65.4933 24.5714 67.6253 22.4594 67.6253 19.8571V15.1429C67.6253 12.5406 65.4933 10.4286 62.8663 10.4286H15.2768ZM15.2768 15.1429H62.8663V19.8571H15.2768V15.1429ZM15.2768 31.6429C12.6499 31.6429 10.5179 33.7549 10.5179 36.3571V41.0714C10.5179 43.6737 12.6499 45.7857 15.2768 45.7857H20.0358C22.6627 45.7857 24.7947 43.6737 24.7947 41.0714V36.3571C24.7947 33.7549 22.6627 31.6429 20.0358 31.6429H15.2768ZM36.6921 31.6429C34.0652 31.6429 31.9332 33.7549 31.9332 36.3571V41.0714C31.9332 43.6737 34.0652 45.7857 36.6921 45.7857H41.451C44.078 45.7857 46.21 43.6737 46.21 41.0714V36.3571C46.21 33.7549 44.078 31.6429 41.451 31.6429H36.6921ZM58.1074 31.6429C55.4804 31.6429 53.3484 33.7549 53.3484 36.3571V41.0714C53.3484 43.6737 55.4804 45.7857 58.1074 45.7857H62.8663C65.4933 45.7857 67.6253 43.6737 67.6253 41.0714V36.3571C67.6253 33.7549 65.4933 31.6429 62.8663 31.6429H58.1074ZM15.2768 36.3571H20.0358V41.0714H15.2768V36.3571ZM36.6921 36.3571H41.451V41.0714H36.6921V36.3571ZM58.1074 36.3571H62.8663V41.0714H58.1074V36.3571ZM15.2768 52.8571C12.6499 52.8571 10.5179 54.9692 10.5179 57.5714V62.2857C10.5179 64.888 12.6499 67 15.2768 67H20.0358C22.6627 67 24.7947 64.888 24.7947 62.2857V57.5714C24.7947 54.9692 22.6627 52.8571 20.0358 52.8571H15.2768ZM15.2768 57.5714H20.0358V62.2857H15.2768V57.5714ZM15.2768 74.0714C12.6499 74.0714 10.5179 76.1834 10.5179 78.7857V83.5C10.5179 86.1023 12.6499 88.2143 15.2768 88.2143H20.0358C22.6627 88.2143 24.7947 86.1023 24.7947 83.5V78.7857C24.7947 76.1834 22.6627 74.0714 20.0358 74.0714H15.2768ZM15.2768 78.7857H20.0358V83.5H15.2768V78.7857Z" fill="url(#paint0_linear_1831_23266)" stroke="#F7F7F7"/>
<path fill-rule="evenodd" clip-rule="evenodd" d="M74.0336 47.8594C59.5878 47.8594 47.8594 59.4777 47.8594 73.7879C47.8594 88.0982 59.5878 99.7165 74.0336 99.7165C88.4794 99.7165 100.208 88.0982 100.208 73.7879C100.208 59.4777 88.4794 47.8594 74.0336 47.8594ZM74.0336 52.5737C85.8524 52.5737 95.4488 62.08 95.4488 73.7879C95.4488 85.4959 85.8524 95.0022 74.0336 95.0022C62.2147 95.0022 52.6183 85.4959 52.6183 73.7879C52.6183 62.08 62.2147 52.5737 74.0336 52.5737ZM74.0336 57.2879C72.7201 57.2879 71.6541 58.3439 71.6541 59.6451V62.0022C69.0248 62.0022 66.8952 64.1119 66.8952 66.7165V71.4308C66.8952 74.0354 69.0248 76.1451 71.6541 76.1451H76.4131V80.8594H69.2746C67.9612 80.8594 66.8952 81.9154 66.8952 83.2165C66.8952 84.5177 67.9612 85.5737 69.2746 85.5737H71.6541V87.9308C71.6541 89.2319 72.7201 90.2879 74.0336 90.2879C75.3471 90.2879 76.4131 89.2319 76.4131 87.9308V85.5737C79.0424 85.5737 81.172 83.464 81.172 80.8594V76.1451C81.172 73.5404 79.0424 71.4308 76.4131 71.4308H71.6541V66.7165H78.7925C80.106 66.7165 81.172 65.6605 81.172 64.3594C81.172 63.0582 80.106 62.0022 78.7925 62.0022H76.4131V59.6451C76.4131 58.3439 75.3471 57.2879 74.0336 57.2879Z" fill="url(#paint1_linear_1831_23266)" stroke="#F7F7F7"/>
<defs>
<linearGradient id="paint0_linear_1831_23266" x1="-23.9717" y1="-53.2903" x2="101.319" y2="89.9417" gradientUnits="userSpaceOnUse">
<stop stop-color="#AD8557"/>
<stop offset="1" stop-color="#D4C8B6"/>
</linearGradient>
<linearGradient id="paint1_linear_1831_23266" x1="74.0336" y1="47.8594" x2="74.0336" y2="99.7165" gradientUnits="userSpaceOnUse">
<stop stop-color="#2C4646"/>
<stop offset="1" stop-color="#678E96"/>
</linearGradient>
</defs>
</svg>
