<svg width="187" height="55" viewBox="0 0 187 55" fill="none" xmlns="http://www.w3.org/2000/svg">
<g clip-path="url(#clip0_100_36578)">
<path fill-rule="evenodd" clip-rule="evenodd" d="M87 31.6188L92.8933 1H93.3539L103.775 21.6896L114.327 1H114.779L120.037 31.6188H115.306L112.294 13.7774L103.83 31.6188H103.211L94.871 13.7343L91.7312 31.6188H87Z" fill="#005496"/>
<path fill-rule="evenodd" clip-rule="evenodd" d="M44.6386 6.6582L45.8146 8.17133L47.3519 8.5237L46.5913 9.19548L47.7817 10.8103L46.0386 9.6513L45.1062 10.3566L44.8841 8.86475L43.1113 7.63249L44.7695 7.95222L44.6386 6.6582Z" fill="#005496"/>
<path fill-rule="evenodd" clip-rule="evenodd" d="M51.4857 15.4414L52.8907 17.2527L54.3542 17.3575L53.8257 18.4912L55.281 20.4402L53.4419 19.2647L52.7593 20.4967L52.2102 18.453L50.3164 17.1744L51.8964 17.206L51.4857 15.4414Z" fill="#005496"/>
<path fill-rule="evenodd" clip-rule="evenodd" d="M53.3016 26.9082L55.1505 29.4934L56.9236 29.1513L56.3935 31.276L58.3398 34.1311L55.9845 32.7757L55.2442 35.2387L54.4014 31.8265L51.957 30.293L53.927 29.773L53.3016 26.9082Z" fill="#005496"/>
<path fill-rule="evenodd" clip-rule="evenodd" d="M17.8577 0.308594L18.968 2.42457L22.3487 3.18298L19.6876 3.87322L20.7568 6.1747L17.7271 4.33865L14.3765 5.09712L15.7314 3.09519L12.6855 1.13936L16.5941 1.91738L17.8577 0.308594Z" fill="#005496"/>
<path fill-rule="evenodd" clip-rule="evenodd" d="M43.5347 39.2148L45.9119 43.4198L48.9652 42.1547L47.5276 46.3711L50.0806 51.1967L46.4028 49.484L44.3375 54.9082L43.909 48.2571L40.0547 46.1733L43.7238 44.4044L43.5347 39.2148Z" fill="#005496"/>
<path fill-rule="evenodd" clip-rule="evenodd" d="M9.00206 11.8848L10.2653 15.2403L15.4128 15.5579L11.0581 17.5913L12.2454 21.4178L7.74102 19.0879L1.78725 21.657L4.74533 17.4649L0.140625 14.8497L6.51347 15.0641L9.00206 11.8848Z" fill="#005496"/>
<path fill-rule="evenodd" clip-rule="evenodd" d="M19.4889 32.6074L21.4006 37.4062L26.689 36.3038L22.6765 40.8367L24.6297 46.5069L19.5104 44.2821L13.6283 50.5023L16.0613 42.6839L10.7266 40.0139L17.4919 38.3074L19.4889 32.6074Z" fill="#005496"/>
<path fill-rule="evenodd" clip-rule="evenodd" d="M32.7207 0.394531L33.8128 1.96624L35.8881 2.54627L34.5291 3.03244L35.6123 4.70834L33.5485 3.35294L31.8916 3.85007L32.1739 2.43823L30.0859 1.0018L32.3819 1.587L32.7207 0.394531Z" fill="#005496"/>
<path fill-rule="evenodd" clip-rule="evenodd" d="M84.2162 31.8083H65.9922V1.18945H83.6413V5.1753H70.4596V14.3772H80.3958V18.3625H70.4596V27.8227H84.3589V31.8083H84.2162Z" fill="#005496"/>
<path fill-rule="evenodd" clip-rule="evenodd" d="M126.545 27.7327C123.732 24.8174 122.135 20.7156 122.135 16.1059C122.135 11.5896 123.763 7.6149 126.533 4.78256C129.264 1.99079 133.103 0.308594 137.585 0.308594C139.64 0.308594 141.793 0.647461 143.796 1.38213C145.606 2.04505 147.295 3.03108 148.684 4.38097L148.772 4.46632L146.481 7.91284L146.359 7.80289C145.251 6.80682 143.851 5.97475 142.341 5.39421C140.862 4.82697 139.277 4.50179 137.756 4.50179C134.414 4.50179 131.735 5.7131 129.86 7.68425C127.859 9.78928 126.771 12.7652 126.771 16.0616C126.771 19.3966 127.892 22.4879 129.933 24.69C131.826 26.7323 134.515 28.0116 137.841 28.0116C139.497 28.0116 141.176 27.64 142.74 26.9659C144.319 26.2852 145.784 25.2943 146.992 24.0658L147.109 23.9469L149.541 27.2613L149.453 27.3503C148.163 28.6614 146.571 29.8867 144.631 30.7828C142.691 31.6791 140.4 32.2484 137.713 32.2484C133.093 32.2484 129.255 30.5412 126.545 27.7327Z" fill="#005496"/>
<path fill-rule="evenodd" clip-rule="evenodd" d="M92.3526 41.7346V39.3302H93.6086C94.3272 39.3302 94.7867 39.7788 94.7867 40.5187C94.7867 41.2672 94.3272 41.7346 93.5998 41.7346H92.3526ZM91.4954 44.7904H92.3526V42.4919H93.7384C94.8563 42.4919 95.6527 41.6991 95.6527 40.5187C95.6527 39.3387 94.8563 38.5726 93.7384 38.5726H91.4954V44.7904ZM85.1374 42.5888C85.1374 43.9804 86.1162 44.896 87.554 44.896C88.9835 44.896 89.9458 43.9804 89.9458 42.5888V38.5726H89.0871V42.571C89.0871 43.5398 88.4818 44.0948 87.5452 44.0948C86.6102 44.0948 85.9956 43.5398 85.9956 42.5795V38.5726H85.1374V42.5888ZM78.5806 41.6375C78.5806 40.2894 79.5336 39.259 80.8421 39.259C82.1408 39.259 83.0933 40.2894 83.0933 41.6375C83.0933 43.0285 82.1408 44.0948 80.8421 44.0948C79.5336 44.0948 78.5806 43.0285 78.5806 41.6375ZM77.6966 41.6375C77.6966 43.4692 79.0215 44.896 80.8421 44.896C82.66 44.896 83.9768 43.4692 83.9768 41.6375C83.9768 39.8497 82.66 38.4668 80.8421 38.4668C79.0215 38.4668 77.6966 39.8497 77.6966 41.6375ZM73.5398 41.5581V39.3302H74.5521C74.9431 39.3302 75.1332 39.3649 75.2893 39.4356C75.6699 39.6028 75.8616 39.964 75.8616 40.4133C75.8616 41.1006 75.4356 41.5581 74.7695 41.5581H73.5398ZM72.6826 44.7904H73.5398V42.316H74.8478L76.1382 44.7904H77.1083L75.8085 42.3773C75.705 42.1836 75.6354 42.0953 75.6354 42.0953V42.0778C76.3026 41.8487 76.727 41.1617 76.727 40.3689C76.727 39.5766 76.3463 39.004 75.757 38.7399C75.5056 38.625 75.211 38.5726 74.6221 38.5726H72.6826V44.7904ZM65.709 41.6724C65.709 43.575 67.069 44.896 68.7144 44.896C69.468 44.896 70.1784 44.579 70.5947 44.1387H70.6112C70.6112 44.1387 70.6029 44.2707 70.6029 44.403V44.7904H71.3561V41.6639H69.5809V42.4213H70.5684V43.3199C70.1259 43.7864 69.4943 44.0948 68.8354 44.0948C67.5625 44.0948 66.592 43.0908 66.592 41.6549C66.592 40.3337 67.4584 39.259 68.8875 39.259C69.5113 39.259 70.2135 39.5147 70.6204 39.8671L71.0532 39.2239C70.4381 38.6956 69.6149 38.4668 68.8272 38.4668C67.0427 38.4668 65.709 39.8758 65.709 41.6724Z" fill="#005496"/>
<path fill-rule="evenodd" clip-rule="evenodd" d="M106.236 44.7904H107.094V42.1397H109.234V41.3819H107.094V39.3302H109.606V38.5726H106.236V44.7904ZM99.6095 41.6375C99.6095 40.2894 100.563 39.259 101.871 39.259C103.17 39.259 104.122 40.2894 104.122 41.6375C104.122 43.0285 103.17 44.0948 101.871 44.0948C100.563 44.0948 99.6095 43.0285 99.6095 41.6375ZM98.7266 41.6375C98.7266 43.4692 100.052 44.896 101.871 44.896C103.69 44.896 105.006 43.4692 105.006 41.6375C105.006 39.8497 103.69 38.4668 101.871 38.4668C100.052 38.4668 98.7266 39.8497 98.7266 41.6375Z" fill="#005496"/>
<path fill-rule="evenodd" clip-rule="evenodd" d="M157.528 44.077C158.057 44.6057 158.802 44.896 159.538 44.896C160.785 44.896 161.486 44.1032 161.486 43.126C161.486 41.1265 158.541 41.4787 158.541 40.1487C158.541 39.6121 159.017 39.2683 159.641 39.2683C160.127 39.2683 160.655 39.497 160.993 39.8142L161.382 39.1008C160.932 38.6689 160.283 38.4668 159.676 38.4668C158.541 38.4668 157.675 39.1448 157.675 40.1926C157.675 42.1305 160.629 41.8222 160.629 43.1963C160.629 43.7338 160.196 44.0858 159.555 44.0858C158.975 44.0858 158.386 43.7774 158.013 43.4165L157.528 44.077ZM153.093 44.7904H156.8V44.0331H153.951V42.0336H156.142V41.2765H153.951V39.3302H156.653V38.5726H153.093V44.7904ZM150.616 44.7904H151.474V38.5726H150.616V44.7904ZM144.102 44.7904H144.959V40.7568C144.959 40.4046 144.907 39.8497 144.907 39.8497H144.925C144.925 39.8497 145.21 40.4133 145.427 40.7568L148.156 44.7904H148.996V38.5726H148.147V42.6062C148.147 42.9584 148.199 43.5133 148.199 43.5133H148.182C148.182 43.5133 147.896 42.9494 147.679 42.6062L144.951 38.5726H144.102V44.7904ZM139.589 42.2805L140.274 40.3162C140.377 39.9905 140.507 39.4266 140.507 39.4266H140.524C140.524 39.4266 140.663 39.9905 140.768 40.3162L141.442 42.2805H139.589ZM137.875 44.7904H138.749L139.364 43.0026H141.668L142.283 44.7904H143.167L140.975 38.5726H140.065L137.875 44.7904ZM134.496 41.7346V39.3302H135.752C136.471 39.3302 136.93 39.7788 136.93 40.5187C136.93 41.2672 136.471 41.7346 135.743 41.7346H134.496ZM133.638 44.7904H134.496V42.4919H135.881C136.999 42.4919 137.797 41.6991 137.797 40.5187C137.797 39.3387 136.999 38.5726 135.881 38.5726H133.638V44.7904ZM126.033 44.7904H126.892L127.185 40.8711C127.22 40.4925 127.203 39.9375 127.203 39.9375H127.22C127.22 39.9375 127.41 40.5363 127.549 40.8711L128.762 43.6718H129.524L130.745 40.8711C130.884 40.5276 131.075 39.9553 131.075 39.9553H131.092C131.092 39.9553 131.075 40.4925 131.11 40.8711L131.404 44.7904H132.252L131.759 38.5726H130.867L129.455 41.937C129.316 42.2805 129.152 42.7735 129.152 42.7735H129.134C129.134 42.7735 128.979 42.2805 128.839 41.937L127.428 38.5726H126.536L126.033 44.7904ZM119.641 41.6375C119.641 40.2894 120.594 39.259 121.902 39.259C123.201 39.259 124.153 40.2894 124.153 41.6375C124.153 43.0285 123.201 44.0948 121.902 44.0948C120.594 44.0948 119.641 43.0285 119.641 41.6375ZM118.757 41.6375C118.757 43.4692 120.082 44.896 121.902 44.896C123.721 44.896 125.037 43.4692 125.037 41.6375C125.037 39.8497 123.721 38.4668 121.902 38.4668C120.082 38.4668 118.757 39.8497 118.757 41.6375ZM112.711 41.6462C112.711 43.4692 113.95 44.896 115.847 44.896C116.93 44.896 117.691 44.4382 118.211 43.9098L117.753 43.2844C117.259 43.7864 116.558 44.0948 115.873 44.0948C114.452 44.0948 113.595 42.9584 113.595 41.6375C113.595 40.3249 114.435 39.259 115.855 39.259C116.488 39.259 117.172 39.5322 117.622 39.9375L118.056 39.286C117.467 38.7134 116.61 38.4668 115.82 38.4668C114.002 38.4668 112.711 39.8404 112.711 41.6462Z" fill="#005496"/>
<path fill-rule="evenodd" clip-rule="evenodd" d="M105.377 54.2025H106.234V50.1689C106.234 49.8167 106.183 49.2619 106.183 49.2619H106.201C106.201 49.2619 106.486 49.8255 106.702 50.1689L109.431 54.2025H110.271V47.9847H109.422V52.0184C109.422 52.3706 109.474 52.9255 109.474 52.9255H109.457C109.457 52.9255 109.171 52.3616 108.954 52.0184L106.226 47.9847H105.377V54.2025ZM100.864 51.6923L101.548 49.7283C101.653 49.4026 101.783 48.8384 101.783 48.8384H101.8C101.8 48.8384 101.938 49.4026 102.042 49.7283L102.717 51.6923H100.864ZM99.1494 54.2025H100.024L100.638 52.4143H102.943L103.558 54.2025H104.442L102.251 47.9847H101.34L99.1494 54.2025ZM94.9396 54.2025H98.6471V53.4451H95.7973V51.4454H97.9893V50.6886H95.7973V48.7421H98.4993V47.9847H94.9396V54.2025ZM90.5484 51.1462V48.7421H91.8044C92.523 48.7421 92.982 49.1912 92.982 49.9308C92.982 50.6793 92.523 51.1462 91.7951 51.1462H90.5484ZM89.6902 54.2025H90.5484V51.9041H91.9337C93.051 51.9041 93.848 51.111 93.848 49.9308C93.848 48.7508 93.051 47.9847 91.9337 47.9847H89.6902V54.2025ZM83.0643 51.0493C83.0643 49.7016 84.0168 48.6712 85.3253 48.6712C86.624 48.6712 87.577 49.7016 87.577 51.0493C87.577 52.4404 86.624 53.5069 85.3253 53.5069C84.0168 53.5069 83.0643 52.4404 83.0643 51.0493ZM82.1808 51.0493C82.1808 52.8815 83.5058 54.3078 85.3253 54.3078C87.1433 54.3078 88.46 52.8815 88.46 51.0493C88.46 49.2619 87.1433 47.8789 85.3253 47.8789C83.5058 47.8789 82.1808 49.2619 82.1808 51.0493ZM78.023 50.9702V48.7421H79.0363C79.4258 48.7421 79.6169 48.7773 79.7725 48.8477C80.1537 49.0149 80.3443 49.3761 80.3443 49.8255C80.3443 50.5127 79.9198 50.9702 79.2527 50.9702H78.023ZM77.1653 54.2025H78.023V51.7278H79.3305L80.6209 54.2025H81.591L80.2928 51.7892C80.1882 51.5958 80.1187 51.5074 80.1187 51.5074V51.4899C80.7863 51.2608 81.2103 50.5741 81.2103 49.7807C81.2103 48.9887 80.8291 48.4161 80.2413 48.152C79.9888 48.0371 79.6952 47.9847 79.1059 47.9847H77.1653V54.2025ZM70.8078 52.0009C70.8078 53.3922 71.7866 54.3078 73.2239 54.3078C74.6534 54.3078 75.6152 53.3922 75.6152 52.0009V47.9847H74.757V51.9832C74.757 52.9517 74.1512 53.5069 73.2156 53.5069C72.2801 53.5069 71.665 52.9517 71.665 51.9916V47.9847H70.8078V52.0009ZM65.9922 54.2025H69.6992V53.4451H66.8499V51.4454H69.0403V50.6886H66.8499V48.7421H69.5519V47.9847H65.9922V54.2025Z" fill="#005496"/>
<path fill-rule="evenodd" clip-rule="evenodd" d="M147.779 54.2025H151.382V53.4451H148.636V47.9847H147.779V54.2025ZM143.265 51.6923L143.95 49.7283C144.054 49.4026 144.184 48.8384 144.184 48.8384H144.201C144.201 48.8384 144.339 49.4026 144.444 49.7283L145.119 51.6923H143.265ZM141.55 54.2025H142.425L143.04 52.4143H145.344L145.959 54.2025H146.842L144.652 47.9847H143.742L141.55 54.2025ZM135.643 51.058C135.643 52.8815 136.882 54.3078 138.779 54.3078C139.861 54.3078 140.624 53.8505 141.143 53.322L140.685 52.6966C140.191 53.1984 139.488 53.5069 138.805 53.5069C137.384 53.5069 136.527 52.3706 136.527 51.0493C136.527 49.7371 137.367 48.6712 138.788 48.6712C139.42 48.6712 140.104 48.9443 140.554 49.3493L140.987 48.6976C140.399 48.1255 139.541 47.8789 138.753 47.8789C136.935 47.8789 135.643 49.2525 135.643 51.058ZM133.538 54.2025H134.395V47.9847H133.538V54.2025ZM128.011 53.4451V48.7421H129.13C130.49 48.7421 131.398 49.5609 131.398 51.0845C131.398 52.6264 130.498 53.4451 129.13 53.4451H128.011ZM127.154 54.2025H129.19C131.052 54.2025 132.282 53.057 132.282 51.0845C132.282 49.1205 131.052 47.9847 129.19 47.9847H127.154V54.2025ZM122.27 54.2025H125.977V53.4451H123.127V51.4454H125.319V50.6886H123.127V48.7421H125.83V47.9847H122.27V54.2025ZM114.664 54.2025H115.522L115.816 50.2833C115.851 49.9046 115.833 49.3493 115.833 49.3493H115.851C115.851 49.3493 116.042 49.9485 116.18 50.2833L117.392 53.0842H118.155L119.376 50.2833C119.515 49.9398 119.706 49.3674 119.706 49.3674H119.723C119.723 49.3674 119.706 49.9046 119.74 50.2833L120.035 54.2025H120.883L120.39 47.9847H119.498L118.085 51.3488C117.947 51.6923 117.782 52.1856 117.782 52.1856H117.765C117.765 52.1856 117.609 51.6923 117.471 51.3488L116.059 47.9847H115.166L114.664 54.2025Z" fill="#005496"/>
<path fill-rule="evenodd" clip-rule="evenodd" d="M183.219 50.9702V48.7421H184.232C184.622 48.7421 184.813 48.7773 184.968 48.8477C185.35 49.0149 185.54 49.3761 185.54 49.8255C185.54 50.5127 185.115 50.9702 184.449 50.9702H183.219ZM182.361 54.2025H183.219V51.7278H184.527L185.818 54.2025H186.788L185.488 51.7892C185.385 51.5958 185.315 51.5074 185.315 51.5074V51.4899C185.982 51.2608 186.407 50.5741 186.407 49.7807C186.407 48.9887 186.025 48.4161 185.437 48.152C185.185 48.0371 184.891 47.9847 184.302 47.9847H182.361V54.2025ZM177.476 54.2025H181.184V53.4451H178.334V51.4454H180.526V50.6886H178.334V48.7421H181.036V47.9847H177.476V54.2025ZM173.579 54.2025H174.428V48.7421H176.532V47.9847H171.474V48.7421H173.579V54.2025ZM165.636 54.2025H166.493V50.1689C166.493 49.8167 166.441 49.2619 166.441 49.2619H166.458C166.458 49.2619 166.744 49.8255 166.961 50.1689L169.689 54.2025H170.53V47.9847H169.681V52.0184C169.681 52.3706 169.733 52.9255 169.733 52.9255H169.715C169.715 52.9255 169.429 52.3616 169.213 52.0184L166.485 47.9847H165.636V54.2025ZM160.751 54.2025H164.457V53.4451H161.608V51.4454H163.799V50.6886H161.608V48.7421H164.31V47.9847H160.751V54.2025ZM154.168 51.058C154.168 52.8815 155.405 54.3078 157.303 54.3078C158.385 54.3078 159.148 53.8505 159.668 53.322L159.208 52.6966C158.715 53.1984 158.013 53.5069 157.329 53.5069C155.908 53.5069 155.051 52.3706 155.051 51.0493C155.051 49.7371 155.891 48.6712 157.311 48.6712C157.944 48.6712 158.628 48.9443 159.079 49.3493L159.512 48.6976C158.922 48.1255 158.065 47.8789 157.277 47.8789C155.458 47.8789 154.168 49.2525 154.168 51.058Z" fill="#005496"/>
</g>
<defs>
<clipPath id="clip0_100_36578">
<rect width="187" height="55" fill="white"/>
</clipPath>
</defs>
</svg>
