<svg width="154" height="55" viewBox="0 0 154 55" fill="none" xmlns="http://www.w3.org/2000/svg">
<path fill-rule="evenodd" clip-rule="evenodd" d="M10.4631 0L7.84565 7.13852H44.1169L46.7343 0H10.4631ZM6.53614 10.7062L3.91875 17.8431H40.19L42.8074 10.7062H6.53614ZM2.6174 21.4123L0 28.5492H36.2713L38.887 21.4123H2.6174Z" fill="#009FDF"/>
<mask id="mask0_100_36614" style="mask-type:luminance" maskUnits="userSpaceOnUse" x="54" y="10" width="100" height="45">
<path d="M54.418 54.5716H153.706V10.8438H54.418V54.5716Z" fill="#0A2973"/>
</mask>
<g mask="url(#mask0_100_36614)">
<path fill-rule="evenodd" clip-rule="evenodd" d="M77.1099 31.2699V31.4205C78.7675 32.0263 80.3509 33.0856 81.1805 33.7658C83.7437 35.8844 84.8751 38.6833 84.8751 42.3146C84.8751 48.293 81.7083 52.6047 76.5062 53.9669C74.9229 54.4204 73.2652 54.5726 70.1727 54.5726H54.418V10.8438H68.365C71.2299 10.8438 73.1894 10.9944 74.9229 11.4479C79.9749 12.8101 83.2917 16.2908 83.2917 21.8124C83.2917 24.7635 82.2361 27.2611 80.5027 28.9245C79.7489 29.6809 78.6933 30.5896 77.1099 31.2699ZM63.1629 35.8844V47.3844H69.1946C71.0023 47.3844 72.6616 47.2337 73.8689 46.0983C75.0746 44.9629 75.6024 43.5262 75.6024 41.6344C75.6024 40.1977 75.2247 38.8355 74.4709 37.8524C73.1894 36.2634 71.606 35.8844 68.8928 35.8844H63.1629ZM63.087 28.3188H67.9873C69.4948 28.3188 70.2486 28.3188 71.0023 28.092C73.0393 27.4862 74.3208 25.6722 74.3208 23.1746C74.3208 20.2251 72.9634 18.9374 71.0023 18.3333C70.1727 18.1065 69.3447 18.0304 67.6854 18.0304H63.087V28.3188ZM97.9925 54.5726V18.181H85.4029V10.8438H120.384L117.897 18.181H106.737V54.5726H97.9925ZM123.097 54.5726V10.8438H151.445L148.958 18.181H131.768V27.8652H138.78C144.434 27.8652 147.374 29.2274 149.41 30.967C150.993 32.3292 153.706 35.3548 153.706 41.3331C153.706 47.2337 150.917 50.4861 148.58 52.1512C145.867 54.0413 143.002 54.5726 137.196 54.5726H123.097ZM131.768 47.2337H138.328C140.815 47.2337 142.322 46.628 143.378 45.2658C143.906 44.5855 144.66 43.3739 144.66 41.1047C144.66 38.8355 143.906 37.2466 142.398 36.1112C141.494 35.4309 140.287 35.0535 138.252 35.0535H131.768V47.2337Z" fill="#0A2973"/>
</g>
</svg>
