<svg width="201" height="44" viewBox="0 0 201 44" fill="none" xmlns="http://www.w3.org/2000/svg">
<g clip-path="url(#clip0_100_36675)">
<path d="M188.853 17.5371H192.985V12.76H196.805V17.5371H200.938V5.59429H196.805V9.80571H192.985V5.59429H188.853V17.5371ZM163.618 8.98857C164.495 8.42286 165.684 7.98286 166.686 7.98286C167.187 7.98286 168.377 8.04571 168.377 9.05143C168.377 10.0571 167.375 10.0571 166.999 10.0571H164.933V12.6343H166.749C167.312 12.6343 168.439 12.6971 168.439 13.64C168.439 14.0171 168.189 14.7714 166.749 14.7714C165.309 14.7714 164.369 14.3943 163.18 13.64L162.115 16.4686C164.369 17.7886 166.436 17.9143 167.438 17.9143C172.196 17.9143 172.76 15.1486 172.76 14.2686C172.76 13.0114 172.009 11.7543 170.381 11.3143C171.445 10.8743 172.071 9.80571 172.071 8.54857C172.071 5.78286 169.128 5.21714 167.375 5.21714C165.684 5.21714 163.806 5.72 162.553 6.41143L163.618 8.98857ZM154.664 4.08571C156.542 4.08571 158.483 3.33143 159.36 1.32L156.667 0.314286C156.354 1.69714 155.165 1.76 154.664 1.76C154.163 1.76 153.036 1.69714 152.723 0.314286L150.03 1.32C150.781 3.33143 152.785 4.08571 154.664 4.08571ZM148.152 5.59429V17.4743H152.222L156.354 10.9371V17.4743H160.487V5.59429H156.48L152.347 11.9429V5.59429H148.152ZM120.538 14.96V8.36C119.16 8.36 117.72 9.36572 117.72 11.6914C117.72 13.8914 119.16 14.96 120.538 14.96ZM124.232 8.36V14.96C125.61 14.96 127.05 13.9543 127.05 11.6914C127.05 9.36572 125.61 8.36 124.232 8.36ZM120.287 22.6914V17.7257C117.782 17.7257 113.712 16.72 113.712 11.5657C113.712 6.47429 117.782 5.40571 120.287 5.46857V0.251429H124.42V5.40571C126.924 5.40571 130.995 6.41143 130.995 11.5029C130.995 16.6571 126.924 17.6629 124.42 17.6629V22.6286H120.287V22.6914ZM101.878 14.96V8.36C100.5 8.36 99.06 9.36572 99.06 11.6914C98.9974 13.8914 100.438 14.96 101.878 14.96ZM105.51 8.36V14.96C106.887 14.96 108.327 13.9543 108.327 11.6914C108.327 9.36572 106.887 8.36 105.51 8.36ZM101.565 22.6914V17.7257C99.06 17.7257 94.9899 16.72 94.9899 11.5657C94.9899 6.47429 99.06 5.40571 101.565 5.46857V0.251429H105.697V5.40571C108.202 5.40571 112.272 6.41143 112.272 11.5029C112.272 16.6571 108.202 17.6629 105.697 17.6629V22.6286H101.565V22.6914ZM87.2254 4.08571C89.1039 4.08571 91.045 3.33143 91.9217 1.32L89.2291 0.314286C88.9161 1.69714 87.7263 1.76 87.2254 1.76C86.7245 1.76 85.5974 1.69714 85.2217 0.314286L82.5291 1.32C83.4058 3.33143 85.3469 4.08571 87.2254 4.08571ZM80.7133 5.59429V17.4743H84.7207L88.8534 10.9371V17.4743H92.9862V5.59429H88.9787L84.846 11.9429V5.59429H80.7133ZM55.3534 3.77143V7.73143H56.8563C58.9226 7.73143 59.1105 6.47429 59.1105 5.72C59.1105 4.90286 58.86 3.77143 56.8563 3.77143H55.5413H55.3534ZM50.845 17.5371V0H57.8581C62.617 0 63.932 3.39429 63.932 5.78286C63.932 8.17143 62.5544 11.5657 57.8581 11.5657H55.2908V17.5371H50.845ZM145.584 5.59429V17.4743H141.452V16.1543H141.389C140.638 17.3486 139.197 17.8514 137.882 17.8514C134.438 17.8514 131.996 14.8971 131.996 11.5029C131.996 8.10857 134.376 5.15429 137.882 5.15429C139.197 5.15429 140.638 5.65714 141.514 6.72571V5.59429H145.584ZM138.884 8.86286C137.194 8.86286 136.192 10.12 136.192 11.5657C136.192 13.0743 137.194 14.2057 138.884 14.2057C140.575 14.2057 141.577 13.0114 141.577 11.5657C141.577 10.12 140.575 8.86286 138.884 8.86286ZM78.146 5.59429V17.4743H74.0133V16.1543H73.9506C73.1992 17.3486 71.7591 17.8514 70.4441 17.8514C67.0002 17.8514 64.5581 14.8971 64.5581 11.5029C64.5581 8.10857 66.9376 5.15429 70.4441 5.15429C71.7591 5.15429 73.1992 5.65714 74.0759 6.72571V5.59429H78.146ZM71.446 8.86286C69.7553 8.86286 68.7534 10.12 68.7534 11.5657C68.7534 13.0743 69.7553 14.2057 71.446 14.2057C73.1366 14.2057 74.1385 13.0114 74.1385 11.5657C74.1385 10.12 73.1366 8.86286 71.446 8.86286ZM186.786 12.0686V12.5086H178.082C178.082 14.2057 178.959 15.1486 180.65 15.1486C181.526 15.1486 182.153 14.8343 182.653 14.08H186.661C185.972 16.9086 183.405 18.1657 180.712 18.1657C176.83 18.1657 173.95 15.9657 173.95 11.8171C173.95 7.85714 176.642 5.46857 180.399 5.46857C184.469 5.46857 186.786 7.98286 186.786 12.0686ZM178.145 10.0571H182.967C182.779 8.92571 181.714 8.17143 180.587 8.17143C179.397 8.17143 178.395 8.86286 178.145 10.0571ZM57.4824 36.52H56.2301L55.6039 40.2286H56.7936C59.5488 40.2286 60.0497 39.4743 60.2376 38.4686C60.4254 37.3371 60.1749 36.52 57.4824 36.52ZM64.9964 38.4686C64.8086 39.6629 64.4329 40.8571 63.5563 41.6743C61.6777 43.56 58.86 43.6857 57.1067 43.7486H50.1562L53.0992 26.2743H64.9964L64.4329 29.7314H57.232L56.6684 33.2514H58.7348C60.3002 33.2514 62.2413 33.44 63.6189 34.6343C64.746 35.5143 65.3095 36.8343 64.9964 38.4686ZM77.5198 40.7314H70.945L69.1918 43.7486H64.1198L74.0759 26.2743H79.2731L83.2805 43.7486H78.2086L77.5198 40.7314ZM76.831 37.2114L75.8291 31.6171H75.7665L72.8862 37.2114H76.831ZM109.893 26.2743H105.071L102.191 43.7486H106.95L108.202 36.1429H108.265L113.149 43.7486H119.348L112.898 34.5714L121.539 26.2743H115.653L108.703 33.5029H108.64L109.893 26.2743ZM91.4834 26.2743L90.4189 32.8114H96.7432L97.8076 26.2743H102.441L99.6235 43.7486H94.9899L96.1796 36.2057H89.8553L88.6656 43.7486H84.0319L86.8497 26.2743H91.4834Z" fill="black"/>
<path d="M42.1404 1.44531H1.43945V42.3025H42.1404V1.44531Z" fill="#FAEB00"/>
<path d="M1.44019 1.44571H42.1411V42.3029H1.44019V1.44571ZM0 43.7486H43.5813V0H0V43.7486Z" fill="black"/>
<path d="M21.7911 26.8407L9.26778 39.4121L4.32105 34.4464L16.8444 21.8749L14.2145 19.2349V14.0807L12.3986 12.2578V16.7835L10.8332 18.3549L4.44628 12.0064L2.88086 13.5778C2.88086 12.3835 3.13133 8.92637 6.0117 6.0978C9.14254 3.08066 12.5238 4.46351 13.7136 5.59494L20.1005 11.9435L18.4724 13.5778L21.7911 16.9092L25.1098 13.5778L23.4818 11.9435L29.8687 5.53208C31.0584 4.40066 34.4397 3.0178 37.5706 6.03494C40.451 8.92637 40.7014 12.3207 40.7014 13.5149L39.136 11.9435L32.7491 18.3549L31.1837 16.7835V12.2578L29.3678 14.0807V19.2349L26.7379 21.8749L39.2612 34.4464L34.3145 39.4121L21.7911 26.8407Z" fill="black"/>
</g>
<defs>
<clipPath id="clip0_100_36675">
<rect width="201" height="44" fill="white"/>
</clipPath>
</defs>
</svg>
